<?xml version="1.0" encoding="UTF-8" standalone="no"?>
<!-- Created with Inkscape (http://www.inkscape.org/) -->

<svg
   width="40mm"
   height="19mm"
   viewBox="0 0 40 19"
   version="1.1"
   id="svg1"
   inkscape:version="1.3 (0e150ed6c4, 2023-07-21)"
   sodipodi:docname="FixBlack.svg"
   xmlns:inkscape="http://www.inkscape.org/namespaces/inkscape"
   xmlns:sodipodi="http://sodipodi.sourceforge.net/DTD/sodipodi-0.dtd"
   xmlns="http://www.w3.org/2000/svg"
   xmlns:svg="http://www.w3.org/2000/svg">
  <sodipodi:namedview
     id="namedview1"
     pagecolor="#ffffff"
     bordercolor="#000000"
     borderopacity="0.25"
     inkscape:showpageshadow="2"
     inkscape:pageopacity="0.0"
     inkscape:pagecheckerboard="0"
     inkscape:deskcolor="#d1d1d1"
     inkscape:document-units="mm"
     inkscape:zoom="5.5375421"
     inkscape:cx="90.924817"
     inkscape:cy="47.042532"
     inkscape:window-width="1920"
     inkscape:window-height="991"
     inkscape:window-x="-9"
     inkscape:window-y="-9"
     inkscape:window-maximized="1"
     inkscape:current-layer="layer1" />
  <defs
     id="defs1" />
  <g
     inkscape:label="Capa 1"
     inkscape:groupmode="layer"
     id="layer1">
    <path
       style="fill:#000000;fill-opacity:0.964286;stroke-width:0.0709858"
       d="m 17.126296,13.175823 0.0061,-0.002"
       id="path29" />
    <path
       id="path1"
       style="fill:#000000;fill-opacity:1;stroke-width:0.0137711"
       d="m 25.187889,0.64575685 c -0.778063,0 -0.915346,0.04969 -1.132756,0.38115095 -0.137312,0.198879 -0.400561,0.861954 -0.583643,1.458574 -0.480554,1.524683 -1.075752,2.237316 -2.643321,3.132241 l -0.595041,0.33163 -0.903959,-1.176717 c -0.492034,-0.646334 -0.903959,-1.292733 -0.903959,-1.425314 0,-0.149153 0.16032,-0.663026 0.354845,-1.160207 C 19.397959,0.64585785 19.866893,0.74526085 12.7269,0.87784685 7.0286366,0.97728685 6.4447926,1.0103348 6.1816196,1.2755068 c -0.160194,0.165732 -1.510458,2.933765 -3.009398,6.165436 l -2.71187703,5.8833302 0.366076,0.13256 c 0.50346203,0.19887 1.25870803,2.2e-4 1.71639903,-0.43068 0.217403,-0.21545 0.801005,-1.27629 1.373119,-2.51924 1.556149,-3.3808302 1.270185,-3.0659702 2.746239,-3.0659702 h 1.258804 l 0.331714,-0.51395 c 0.606442,-0.92807 0.446282,-1.06067 -1.350155,-1.06067 -0.812403,0 -1.441746,-0.0661 -1.510398,-0.16557 -0.114423,-0.16573 0.514879,-1.640831 1.304396,-3.099226 l 0.240363,-0.414412 5.1148364,-0.08279 c 4.657012,-0.06629 5.126278,-0.04976 5.286476,0.19883 0.228815,0.3646 0.22886,0.397699 -0.183038,1.077179 -0.446264,0.729195 -0.411989,1.011044 0.366074,2.353439 0.320395,0.56347 0.549256,1.11036 0.503523,1.19322 -0.06866,0.1823 -1.716392,1.34253 -1.899437,1.34253 -0.21741,0 -1.430322,0.86173 -1.933799,1.39205 -0.503439,0.5137602 -0.606621,0.5635902 -1.556324,0.5967402 -1.727804,0.0829 -1.590518,0.18237 -1.590518,-1.2097302 0,-1.04409 0.04586,-1.30939 0.320483,-1.90601 0.17164,-0.38117 0.308918,-0.76246 0.308919,-0.84533 0,-0.19887 -0.308998,-0.3646 -0.503523,-0.2486 -0.0915,0.0497 -0.812366,1.5746 -1.6133144,3.3976 -1.189995,2.7179102 -1.430384,3.3477802 -1.315962,3.5466502 0.114423,0.21545 0.675227,0.2486 3.3870394,0.2486 1.773574,0 3.36412,-0.0662 3.524317,-0.14906 0.400456,-0.23203 0.949752,-1.11066 1.499,-2.43646 0.411898,-0.9777902 0.572237,-1.2097802 1.098562,-1.5743902 0.920715,-0.63778 1.796306,-1.29949 2.001684,-1.06771 5.03e-4,-1.6e-4 0.0011,-2e-5 0.0018,4.9e-4 7.67e-4,5.1e-4 0.0017,10e-4 0.0023,0.002 9.96e-4,7.3e-4 0.002,0.001 0.003,0.002 0.0011,8.9e-4 0.002,0.002 0.003,0.003 7.55e-4,9.9e-4 0.0015,0.002 0.0022,0.003 l 1.72e-4,2.4e-4 c 1.83e-4,-4.8e-4 1.83e-4,-10e-4 5.04e-4,-10e-4 h 1.71e-4 l -10e-4,-0.002 0.0015,0.002 h 1.72e-4 c 3.89e-4,1.6e-4 6.87e-4,5.3e-4 10e-4,10e-4 l 1.72e-4,4.9e-4 1.71e-4,2.4e-4 0.305902,0.41028 c 0.183044,0.27048 0.57208,0.82854 0.880994,1.34229 l 0.56068,0.9281302 -0.251761,0.99439 c -0.137312,0.53033 -0.217411,1.11034 -0.17164,1.2595 0.102984,0.38117 0.8583,0.39775 0.961284,0 0.05721,-0.23201 0.09159,-0.21529 0.160242,0.083 0.09154,0.34802 0.171588,0.36463 1.395915,0.36463 h 1.292998 l 0.366244,-1.07742 c 0.205968,-0.59662 0.366076,-1.12682 0.366076,-1.15996 0,-0.0497 -0.297432,-0.083 -0.663597,-0.083 -0.606423,0 -0.686616,0.0332 -0.801042,0.41442 -0.125869,0.39775 -0.114326,0.41441 0.274724,0.41441 0.320395,0 0.400404,0.0496 0.366076,0.28162 -0.03433,0.24859 -0.183105,0.29841 -0.938321,0.34813 -0.503439,0.0332 -0.938308,-0.0167 -0.984079,-0.083 -0.05721,-0.0663 0.04576,-0.54674 0.217399,-1.04392 l 0.297521,-0.9116 1.258803,-0.0498 c 1.23577,-0.0497 1.418835,-0.13245 1.430278,-0.6627702 0,-0.14916 -0.320422,-0.19907 -1.24724,-0.19907 -1.224326,0 -1.247354,0.0166 -1.613481,0.4971902 l -0.354678,0.48069 0.06872,-0.49719 c 0.102984,-0.6629102 -0.09162,-1.0772802 -1.018441,-2.0550702 -0.457669,-0.48061 -0.755204,-0.91152 -0.732319,-1.06067 0.02289,-0.14916 0.526434,-0.53038 1.235841,-0.92813 1.922329,-1.093786 2.265684,-1.475085 3.089518,-3.414093 0.38905,-0.8949 0.663563,-1.72365295 0.629235,-1.80646495 -0.03433,-0.09944 -0.469082,-0.165813 -0.961117,-0.165813 z m -5.45644,8.05929595 c 5.38e-4,10e-4 0.0011,0.003 0.0017,0.004 1.14e-4,1.5e-4 2.17e-4,3.3e-4 3.32e-4,4.8e-4 -2.75e-4,-8.1e-4 -5.61e-4,-0.002 -8.36e-4,-0.002 -2.17e-4,-6.5e-4 -4.57e-4,-10e-4 -6.75e-4,-0.002 -1.6e-4,-5e-5 -3.43e-4,5e-5 -5.03e-4,0 z m -0.0013,0.21704 v 9.7e-4 c 3.43e-4,2.2e-4 6.63e-4,5.2e-4 10e-4,7.3e-4 -3.54e-4,-5.4e-4 -6.52e-4,-10e-4 -10e-4,-0.002 z m 0.08062,0.30589 c 1.61e-4,1.8e-4 3.44e-4,3.2e-4 5.04e-4,4.9e-4 v -4.9e-4 c -1.6e-4,-10e-6 -3.32e-4,2e-5 -5.04e-4,0 z m 0.05531,0.19713 c -1.6e-4,2.2e-4 -3.43e-4,5.2e-4 -5.03e-4,7.3e-4 2.17e-4,-3e-5 4.46e-4,4e-5 6.75e-4,0 -1.15e-4,-2.3e-4 -1.15e-4,-4.9e-4 -1.72e-4,-7.3e-4 z" />
    <path
       d="m 11.476353,3.8304868 c -0.366165,0.745795 -0.114427,1.359005 0.377608,0.977821 0.297509,-0.232026 0.492034,-0.745796 0.400493,-1.07726 -0.102984,-0.381185 -0.572133,-0.314892 -0.778101,0.099439 z"
       id="path2"
       style="fill:#000000;fill-opacity:1;stroke-width:0.0137711" />
    <path
       d="m 26.031416,10.874113 c -0.251738,0.81209 -0.526362,1.65732 -0.617903,1.90592 -0.148755,0.4309 -0.148755,0.46405 0.04577,0.46405 0.12587,0 0.29751,-0.26517 0.457707,-0.7458 l 0.251738,-0.74579 h 0.972627 c 0.537805,0 0.972626,0.0331 0.972626,0.0663 0,0.0332 -0.0801,0.33147 -0.17164,0.64636 -0.217411,0.76237 -0.217411,0.77894 0.04577,0.77894 0.205968,0 0.583576,-1.07726 0.583576,-1.69047 0,-0.14916 0.05721,-0.33147 0.114427,-0.38119 0.137312,-0.11601 0.572133,-1.3092802 0.572133,-1.5744502 0,-0.0994 -0.503477,-0.16573 -1.384562,-0.16573 h -1.373119 z m 2.540271,-0.48063 c 0,0.38119 -0.34328,0.53035 -1.167151,0.53035 -0.492035,0 -0.892528,-0.0332 -0.892528,-0.0663 0,-0.49719 0.17164,-0.59663 1.098496,-0.59663 0.526362,0 0.961183,0.0663 0.961183,0.13258 z"
       id="path3"
       style="fill:#000000;fill-opacity:1;stroke-width:0.0137711" />
    <path
       d="M 29.807494,9.8797128 C 29.418444,10.492923 28.80054,12.299403 28.80054,12.829753 v 0.41433 h 1.144266 c 1.07561,0 1.178594,-0.0332 1.441775,-0.41433 0.366165,-0.53035 1.121381,-2.81745 1.02984,-3.1489202 -0.04577,-0.19887 -0.286067,-0.24859 -1.190037,-0.24859 -1.07561,0 -1.132823,0.0166 -1.41889,0.44747 z m 2.082564,0.4640502 c 0,0.0497 -0.160197,0.53035 -0.343279,1.07726 l -0.34328,0.9944 h -0.915413 c -1.064167,0 -1.07561,-0.0497 -0.629346,-1.32586 l 0.286066,-0.82866 h 0.972626 c 0.537805,0 0.972626,0.0331 0.972626,0.0829 z"
       id="path4"
       style="fill:#000000;fill-opacity:1;stroke-width:0.0137711" />
    <path
       d="m 32.530847,11.072993 c -0.331837,0.96124 -0.526362,1.74018 -0.492034,1.90592 0.05721,0.21545 0.263181,0.26517 1.201479,0.26517 1.07561,0 1.132824,-0.0166 1.41889,-0.46405 0.251739,-0.38119 1.235807,-2.9831802 1.235807,-3.2649302 0,-0.0497 -0.09154,-0.0829 -0.194525,-0.0829 -0.137312,0 -0.366165,0.46405 -0.720887,1.4584402 l -0.51492,1.44187 -0.846757,0.0497 c -0.469149,0.0332 -0.892527,-0.0166 -0.949741,-0.0994 -0.04577,-0.0663 0.114427,-0.74579 0.366165,-1.49159 0.377608,-1.1601302 0.423379,-1.3590002 0.251739,-1.3590002 -0.148755,0 -0.366165,0.49719 -0.755216,1.6407502 z"
       id="path5"
       style="fill:#000000;fill-opacity:1;stroke-width:0.0137711" />
    <path
       d="m 35.723349,11.255293 c -0.343279,0.99439 -0.629346,1.8562 -0.629346,1.90592 0,0.0497 0.09154,0.0829 0.205968,0.0829 0.125869,0 0.297509,-0.26517 0.457706,-0.7458 l 0.251739,-0.74579 h 1.144266 c 1.006954,0 1.167151,-0.0332 1.384562,-0.34804 0.274624,-0.39776 0.686559,-1.6407502 0.606461,-1.8396302 -0.03433,-0.0663 -0.675117,-0.13258 -1.430333,-0.13258 h -1.361676 z m 2.803452,-0.86181 c 0,0.38119 -0.34328,0.53035 -1.224364,0.53035 -0.526363,0 -0.949741,-0.0332 -0.949741,-0.0663 0,-0.51377 0.17164,-0.59663 1.155708,-0.59663 0.560691,0 1.018397,0.0663 1.018397,0.13258 z"
       id="path6"
       style="fill:#000000;fill-opacity:1;stroke-width:0.0137711" />
    <path
       d="m 0.65159657,15.481463 c 0,0.13259 0.05721,0.2486 0.114426,0.2486 0.06866,0 0.114427,0.41433 0.114427,0.91153 0,0.69608 0.03433,0.91153 0.17164003,0.91153 0.137312,0 0.17164,-0.21545 0.17164,-0.91153 0,-0.4972 0.05721,-0.91153 0.114426,-0.91153 0.06866,0 0.114427,-0.11601 0.114427,-0.2486 0,-0.16573 -0.125869,-0.24859 -0.400493,-0.24859 -0.27462403,0 -0.40049303,0.0829 -0.40049303,0.24859 z"
       id="path7"
       style="fill:#000000;fill-opacity:1;stroke-width:0.0137711" />
    <path
       d="m 4.3590176,15.464893 c -0.03433,0.11601 -0.04577,0.61321 -0.02289,1.09383 0.04577,1.04412 0.286067,1.32586 0.34328,0.38119 0.04577,-0.86181 0.366165,-0.87838 0.411936,-0.0166 0.05721,0.9281 0.274624,0.76236 0.228853,-0.16574 -0.03433,-0.71265 -0.05721,-0.77894 -0.34328,-0.82866 -0.228853,-0.0331 -0.320394,-0.14916 -0.320394,-0.38118 0,-0.36461 -0.205968,-0.43091 -0.29751,-0.0829 z"
       id="path8"
       style="fill:#000000;fill-opacity:1;stroke-width:0.0137711" />
    <path
       d="m 8.2266376,16.343273 c 0.02289,0.69608 0.09154,1.12698 0.183082,1.1767 0.102984,0.0497 0.137312,-0.2486 0.137312,-1.1104 0,-0.94468 -0.03433,-1.1767 -0.17164,-1.1767 -0.148754,0 -0.17164,0.19888 -0.148754,1.1104 z"
       id="path9"
       style="fill:#000000;fill-opacity:1;stroke-width:0.0137711" />
    <path
       d="m 13.490261,15.431753 c -0.205968,0.29831 -0.17164,0.48062 0.160197,0.97782 0.308952,0.46405 0.286067,1.01096 -0.02289,0.62978 -0.194525,-0.23203 -0.331837,-0.0994 -0.240296,0.26517 0.0801,0.29832 0.549248,0.33146 0.743773,0.0497 0.205968,-0.29832 0.160197,-0.59664 -0.148755,-0.99439 -0.320394,-0.39776 -0.377607,-0.71265 -0.114426,-0.58007 0.21741,0.13259 0.354722,-0.21545 0.160197,-0.39775 -0.21741,-0.19888 -0.377608,-0.18231 -0.537805,0.0497 z"
       id="path10"
       style="fill:#000000;fill-opacity:1;stroke-width:0.0137711" />
    <path
       d="m 15.801678,15.464893 c -0.114426,0.41433 0.01144,1.97222 0.160198,2.05508 0.102984,0.0497 0.137312,-0.2486 0.137312,-1.1104 0,-1.09384 -0.137312,-1.54131 -0.29751,-0.94468 z"
       id="path11"
       style="fill:#000000;fill-opacity:1;stroke-width:0.0137711" />
    <path
       d="m 17.70116,15.547763 c 0,0.1823 -0.06866,0.36461 -0.137312,0.41433 -0.114427,0.0829 -0.114427,0.11601 0,0.19888 0.06866,0.0497 0.137312,0.38118 0.137312,0.74579 0,0.34804 0.05721,0.64636 0.114427,0.64636 0.06866,0 0.114426,-0.29832 0.114426,-0.64636 0,-0.36461 0.06866,-0.69607 0.148755,-0.74579 0.114426,-0.0829 0.114426,-0.11602 0,-0.19888 -0.0801,-0.0497 -0.148755,-0.23203 -0.148755,-0.41433 0,-0.16573 -0.04577,-0.31489 -0.114426,-0.31489 -0.05721,0 -0.114427,0.14916 -0.114427,0.31489 z"
       id="path12"
       style="fill:#000000;fill-opacity:1;stroke-width:0.0137711" />
    <path
       d="m 18.238965,15.332313 c -0.09154,0.13258 0.01144,0.39775 0.160197,0.39775 0.05721,0 0.102984,-0.11601 0.102984,-0.2486 0,-0.24859 -0.137312,-0.33146 -0.263181,-0.14915 z"
       id="path13"
       style="fill:#000000;fill-opacity:1;stroke-width:0.0137711" />
    <path
       d="m 1.6814356,16.210693 c -0.17164,0.48062 -0.137312,0.76237 0.102984,1.07726 0.240296,0.31489 0.709445,0.29831 0.789543,-0.0332 0.03433,-0.14916 -0.03433,-0.18231 -0.240295,-0.11601 -0.160198,0.0663 -0.320395,0.0331 -0.354723,-0.0663 -0.05721,-0.11601 0.05721,-0.1823 0.320395,-0.1823 0.480591,0 0.572133,-0.16573 0.343279,-0.62978 -0.228853,-0.46405 -0.789543,-0.4972 -0.961183,-0.0497 z m 0.743773,0.1823 c 0.04577,0.0994 -0.05721,0.16573 -0.217411,0.16573 -0.160197,0 -0.297509,-0.0829 -0.297509,-0.16573 0,-0.0994 0.102984,-0.16573 0.217411,-0.16573 0.125869,0 0.263181,0.0663 0.297509,0.16573 z"
       id="path14"
       style="fill:#000000;fill-opacity:1;stroke-width:0.0137711" />
    <path
       d="m 3.0316696,16.310133 c -0.228853,0.72922 0.194525,1.37557 0.766658,1.1767 0.366165,-0.13259 0.274624,-0.34804 -0.148754,-0.34804 -0.251739,0 -0.308952,-0.0829 -0.308952,-0.41433 0,-0.33147 0.05721,-0.41433 0.286066,-0.43091 0.457707,0 0.434821,-0.31489 -0.02289,-0.36461 -0.377608,-0.0497 -0.457707,0 -0.572133,0.38119 z"
       id="path15"
       style="fill:#000000;fill-opacity:1;stroke-width:0.0137711" />
    <path
       d="m 5.6863666,16.707883 c 0,0.97782 0.194525,1.14356 0.251739,0.21546 0.02288,-0.41433 0.09154,-0.61321 0.205967,-0.61321 0.114427,0 0.183083,0.19888 0.205968,0.61321 0.05721,0.9281 0.274624,0.76236 0.228853,-0.16574 -0.03433,-0.77894 -0.03433,-0.77894 -0.457706,-0.82866 l -0.434821,-0.0497 z"
       id="path16"
       style="fill:#000000;fill-opacity:1;stroke-width:0.0137711" />
    <path
       d="m 7.0137156,16.160973 c -0.228854,0.31489 -0.228854,0.56349 0,1.02754 0.240295,0.49719 0.675117,0.48062 0.915412,-0.0497 0.17164,-0.38119 0.17164,-0.44748 0,-0.82866 -0.21741,-0.48063 -0.640789,-0.54692 -0.915412,-0.14916 z m 0.709444,0.49719 c 0.03433,0.36462 -0.240295,0.64636 -0.446263,0.46405 -0.12587,-0.0994 -0.137312,-0.62978 -0.02289,-0.79551 0.148755,-0.21545 0.434822,-0.0166 0.469149,0.33146 z"
       id="path17"
       style="fill:#000000;fill-opacity:1;stroke-width:0.0137711" />
    <path
       d="m 8.9017536,16.127823 c -0.240295,0.4309 -0.114426,1.14355 0.251739,1.32586 0.263181,0.13258 0.354722,0.0994 0.56069,-0.19888 0.205968,-0.29832 0.228854,-0.4309 0.137312,-0.81209 -0.0801,-0.34804 -0.194525,-0.48062 -0.457706,-0.51377 -0.205968,-0.0331 -0.411936,0.0497 -0.492035,0.19888 z m 0.652232,0.4972 c 0.02289,0.16573 -0.01144,0.38118 -0.0801,0.48062 -0.171639,0.2486 -0.526362,-0.26517 -0.423378,-0.62978 0.09154,-0.34804 0.457706,-0.2486 0.503478,0.14916 z"
       id="path18"
       style="fill:#000000;fill-opacity:1;stroke-width:0.0137711" />
    <path
       d="m 10.297759,16.011813 c -0.0801,0.0331 -0.148755,0.33146 -0.148755,0.62978 0,0.59664 0.320395,1.02754 0.640789,0.84524 0.09154,-0.0497 0.160198,0 0.160198,0.0994 0,0.11602 -0.148755,0.14916 -0.400494,0.0829 -0.434821,-0.0994 -0.537805,0.0994 -0.183082,0.38119 0.320394,0.23202 0.434821,0.21545 0.698002,-0.16574 0.17164,-0.2486 0.228853,-0.54691 0.228853,-1.16012 v -0.82866 l -0.423378,0.0166 c -0.240296,0 -0.503477,0.0497 -0.572133,0.0994 z m 0.629346,0.6795 c 0.03433,0.26517 -0.02289,0.36461 -0.194525,0.36461 -0.274624,0 -0.400493,-0.2486 -0.308952,-0.59663 0.102984,-0.38119 0.457707,-0.21546 0.503477,0.23202 z"
       id="path19"
       style="fill:#000000;fill-opacity:1;stroke-width:0.0137711" />
    <path
       d="m 11.63655,16.658163 c 0.17164,0.56349 0.194525,0.82867 0.114427,1.07726 -0.09154,0.2486 -0.0801,0.3149 0.03433,0.3149 0.125869,0 0.766658,-1.74019 0.766658,-2.08823 0,-0.23203 -0.251739,0 -0.38905,0.38118 l -0.160198,0.46405 -0.148754,-0.46405 c -0.0801,-0.2486 -0.205968,-0.44747 -0.286067,-0.44747 -0.114426,0 -0.09154,0.1823 0.06866,0.76236 z"
       id="path20"
       style="fill:#000000;fill-opacity:1;stroke-width:0.0137711" />
    <path
       d="m 14.542986,16.310133 c -0.17164,0.38118 -0.17164,0.44747 0,0.82866 0.240296,0.53034 0.675117,0.54691 0.915413,0.0497 0.228853,-0.46405 0.228853,-0.71265 0,-1.02754 -0.274624,-0.39776 -0.698003,-0.33147 -0.915413,0.14916 z m 0.73233,0.31489 c 0.04577,0.34804 -0.160197,0.61321 -0.400493,0.48062 -0.160197,-0.0829 -0.205968,-0.58006 -0.06866,-0.77894 0.137312,-0.19888 0.434821,-0.0166 0.469149,0.29832 z"
       id="path21"
       style="fill:#000000;fill-opacity:1;stroke-width:0.0137711" />
    <path
       d="m 16.328041,16.409573 c 0,0.69607 0.194525,1.14355 0.492034,1.14355 0.377608,0 0.537805,-0.31489 0.537805,-1.02754 0,-0.86181 -0.320394,-0.87838 -0.366165,-0.0166 -0.02289,0.34803 -0.0801,0.62978 -0.148754,0.62978 -0.05721,0 -0.12587,-0.28175 -0.148755,-0.62978 -0.04577,-0.77895 -0.366165,-0.87839 -0.366165,-0.0994 z"
       id="path22"
       style="fill:#000000;fill-opacity:1;stroke-width:0.0137711" />
    <path
       d="m 18.273293,16.724463 c 0,0.44747 0.05721,0.82866 0.114427,0.82866 0.06866,0 0.114426,-0.38119 0.114426,-0.82866 0,-0.46405 -0.04577,-0.82866 -0.114426,-0.82866 -0.05721,0 -0.114427,0.36461 -0.114427,0.82866 z"
       id="path23"
       style="fill:#000000;fill-opacity:1;stroke-width:0.0137711" />
    <path
       d="m 18.868311,16.094673 c -0.308952,0.44748 -0.03433,1.45845 0.389051,1.45845 0.354722,0 0.617903,-0.34804 0.617903,-0.79552 0,-0.58006 -0.183082,-0.8618 -0.572133,-0.8618 -0.160197,0 -0.354722,0.0829 -0.434821,0.19887 z m 0.709445,0.41434 c 0.04577,0.14915 0,0.38118 -0.102984,0.53034 -0.148754,0.23202 -0.194525,0.23202 -0.366165,-0.0166 -0.148754,-0.23203 -0.160197,-0.33147 -0.03433,-0.53035 0.183083,-0.34804 0.411936,-0.33146 0.503477,0.0166 z"
       id="path24"
       style="fill:#000000;fill-opacity:1;stroke-width:0.0137711" />
    <path
       d="m 20.104119,16.707883 c 0,0.64636 0.04577,0.84524 0.171639,0.84524 0.114427,0 0.17164,-0.16573 0.17164,-0.56349 0,-0.62978 0.194526,-0.94468 0.354723,-0.58006 0.05721,0.13258 0.102984,0.4309 0.102984,0.6795 0,0.26517 0.05721,0.46405 0.125869,0.46405 0.06866,0 0.102984,-0.31489 0.0801,-0.79552 l -0.03433,-0.77894 -0.480592,-0.0497 -0.492034,-0.0497 z"
       id="path25"
       style="fill:#000000;fill-opacity:1;stroke-width:0.0137711" />
    <path
       d="m 21.397139,16.177543 c -0.04577,0.16573 0.02289,0.38118 0.17164,0.56349 0.320395,0.36461 0.320395,0.53034 0.01144,0.39776 -0.17164,-0.0829 -0.228853,-0.0497 -0.194525,0.0994 0.0801,0.34803 0.492034,0.36461 0.675116,0.0497 0.137312,-0.23203 0.114427,-0.31489 -0.160197,-0.66293 -0.297509,-0.36461 -0.297509,-0.39776 -0.09154,-0.39776 0.137312,0 0.240296,-0.0829 0.240296,-0.16573 0,-0.28175 -0.572133,-0.18231 -0.652232,0.11601 z"
       id="path26"
       style="fill:#000000;fill-opacity:1;stroke-width:0.0137711" />
  </g>
</svg>
