<?xml version="1.0" encoding="UTF-8" standalone="no"?>
<svg
   version="1.0"
   width="380.000000pt"
   height="122.000000pt"
   viewBox="0 0 380.000000 122.000000"
   preserveAspectRatio="xMidYMid meet"
   id="svg26"
   sodipodi:docname="logo-fix-group-380x122.svg"
   inkscape:version="1.3 (0e150ed6c4, 2023-07-21)"
   xmlns:inkscape="http://www.inkscape.org/namespaces/inkscape"
   xmlns:sodipodi="http://sodipodi.sourceforge.net/DTD/sodipodi-0.dtd"
   xmlns="http://www.w3.org/2000/svg"
   xmlns:svg="http://www.w3.org/2000/svg">
  <defs
     id="defs26" />
  <sodipodi:namedview
     id="namedview26"
     pagecolor="#ffffff"
     bordercolor="#000000"
     borderopacity="0.25"
     inkscape:showpageshadow="2"
     inkscape:pageopacity="0.0"
     inkscape:pagecheckerboard="0"
     inkscape:deskcolor="#d1d1d1"
     inkscape:document-units="pt"
     inkscape:zoom="2.8284271"
     inkscape:cx="235.99689"
     inkscape:cy="85.383144"
     inkscape:window-width="1920"
     inkscape:window-height="991"
     inkscape:window-x="-9"
     inkscape:window-y="-9"
     inkscape:window-maximized="1"
     inkscape:current-layer="svg26" />
  <g
     transform="translate(0.000000,122.000000) scale(0.100000,-0.100000)"
     fill="#000000"
     stroke="none"
     id="g26"
     style="fill:#000000;fill-opacity:1">
    <path
       id="path1"
       style="fill:#000000;fill-opacity:1"
       d="m 2354.2822,1070.1611 c -67.9991,0 -79.9941,-2.998 -98.9941,-22.998 -12,-12 -35.0059,-52.0081 -51.0059,-88.00783 -41.9991,-91.9991 -94.0076,-134.99459 -231.0058,-188.99414 l -52.002,-20.00976 -78.999,71.00097 c -43,38.99964 -78.999,78.00107 -78.999,86.00098 0,8.99991 14.0107,40.00515 31.0107,70.00488 54,92.9992 94.9956,86.999 -528.999,78.999 -497.99563,-6 -549.00703,-7.9941 -572.00685,-23.9941 -13.99991,-10 -131.99922,-177.01353 -262.99805,-372.01173 l -236.99707,-354.99024 31.99219,-7.99804 c 43.99964,-11.99991 110.00036,-0.0136 150,25.98632 18.99982,12.99991 70.00045,77.00747 120,152.00684 135.99874,203.9982 111.00117,184.99512 240,184.99512 h 110.00977 l 28.98925,31.01074 c 52.99955,55.99946 39.0054,63.99902 -117.99316,63.99902 -70.99937,0 -125.99716,3.99024 -131.99707,9.99024 -9.99991,9.99991 44.99477,99.00276 113.99414,187.00195 l 21.00586,25.00488 446.99709,4.99512 c 406.9964,4 447.9971,3.00283 461.9971,-11.99707 19.9991,-21.99982 20.003,-23.99548 -15.9961,-64.99512 -39,-43.99955 -36.007,-61.00267 31.9921,-142.00195 28,-33.99973 48.0031,-66.99716 44.004,-71.99707 -6,-10.99991 -149.997,-81.00586 -165.9961,-81.00586 -19,0 -124.9991,-51.99441 -168.9991,-83.99414 -43.9991,-30.99973 -53.0116,-34.00586 -136.0107,-36.00586 -150.9991,-5 -138.999,-11.00603 -138.999,72.99316 0,62.99946 4.0078,79.00516 28.0078,115.00489 15,22.99973 26.997,46.00586 26.9971,51.00586 0,11.99982 -27.004,21.99991 -44.004,15 -7.9991,-3 -70.9921,-95.00588 -140.99117,-205.00489 C 884.28712,375.1568 863.28134,337.15616 873.28125,325.15625 c 9.99991,-12.99991 59.00334,-15 296.00095,-15 154.9991,0 293.9981,3.99423 307.9981,8.99414 34.9991,13.99991 83.001,67.01244 131.001,147.01172 35.9991,58.99946 50.0067,72.9953 96.0058,94.99512 80.4658,38.48366 156.9833,78.40987 174.9317,64.42382 0.044,0.01 0.095,0.001 0.1611,-0.0293 0.067,-0.0312 0.1451,-0.0655 0.2051,-0.10254 0.087,-0.044 0.1736,-0.0712 0.2636,-0.11719 0.096,-0.0537 0.1737,-0.12143 0.2637,-0.19043 0.066,-0.0595 0.1304,-0.12043 0.1904,-0.19043 l 0.015,-0.0147 c 0.016,0.0295 0.016,0.0801 0.044,0.0879 h 0.015 l -0.088,0.13184 0.1318,-0.13184 h 0.015 c 0.034,-0.01 0.06,-0.0323 0.088,-0.0732 l 0.015,-0.0293 0.015,-0.0146 26.7334,-24.75586 c 15.9991,-16.3201 49.993,-49.99148 76.9921,-80.99121 l 48.9991,-56.00098 -22.002,-60 c -12,-31.99973 -19,-66.99618 -15,-75.99609 9,-22.99982 75.0088,-23.99982 84.0088,0 5,13.99982 8.0039,12.99005 14.0039,-5.00977 8,-20.99982 14.9931,-22.00195 121.9922,-22.00195 h 112.998 l 32.0069,65.00976 c 18,35.99973 31.9922,67.99024 31.9922,69.99024 0,2.99991 -25.9932,5.00976 -57.9932,5.00976 -52.9991,0 -60.0049,-2.00506 -70.0049,-25.00488 -11,-23.99982 -9.9912,-25.00488 24.0088,-25.00488 28,0 34.9922,-2.99228 31.9922,-16.99219 -3,-14.99991 -16.002,-18.00586 -82.002,-21.00586 -43.9991,-2 -82.0009,1.00977 -86.0009,5.00977 -5,3.99991 3.999,32.98855 18.999,62.98828 l 26.001,55.00488 110.0097,3.00293 c 107.9991,3 123.9952,7.99059 124.9952,39.99023 0,9 -28,12.01172 -108.9991,12.01172 -106.9991,0 -109.0067,-1.00027 -141.0058,-30 l -30.9961,-29.0039 6.0058,30 c 9,39.99964 -8.0048,64.99956 -89.0039,123.99902 -39.9991,28.99973 -65.999,54.99911 -63.999,63.99902 2,8.99991 46.0038,32.00116 108.0029,56.00098 167.9991,65.99937 198.0009,89.00197 270,206.00098 34,53.99917 57.9903,103.99987 54.9903,108.99897 -3,6 -40.9942,10.0049 -83.9942,10.0049 z M 1882.5293,621.78711 c 0.01,-0.0142 0.01,-0.0304 0.015,-0.0439 0.07,-0.179 -0.026,-0.27682 -0.1318,-0.24902 0.5748,-1.50528 0.9229,-3.21942 0.9229,-5.25879 0,-11.91573 -30.0188,-36.49908 -51.1963,-53.3789 0.4626,0.2901 0.9293,0.5737 1.3916,0.86425 0.6487,0.3083 1.2302,0.89485 1.9482,0.92285 0.409,0.016 1.0249,-0.40926 0.9229,-0.80566 -0.027,-0.10443 -0.073,-0.21107 -0.1172,-0.30762 0.3987,0.14728 0.8098,0.24878 1.2158,0.24903 0.7816,0.5736 1.6118,1.07872 2.4023,1.64062 1.9677,0.80924 3.3394,1.66134 5.2442,1.69922 0.4396,0.009 0.9103,-0.0293 1.4209,-0.11719 1.9532,-0.33615 3.503,-1.62958 4.248,-3.44238 0.385,-0.93514 0.5327,-1.97729 0.5127,-2.98828 -0.017,-1.14888 -0.4092,-2.26805 -0.6152,-3.39844 -0.5684,-1.1624 -1.0059,-2.40314 -1.7139,-3.48633 -1.4657,-2.24291 -3.6138,-4.30836 -5.8594,-5.75683 -1.7042,-1.09949 -4.0539,-2.12362 -6.1523,-2.18262 -0.7891,-0.0221 -1.5531,0.29195 -2.3291,0.43945 -0.5235,0.41991 -1.1404,0.74177 -1.5674,1.25977 -0.405,0.49212 -0.6512,1.11307 -0.8642,1.71387 -0.3466,0.97701 -0.4591,1.98173 -0.4688,3.00293 -0.5893,-0.16043 -1.2328,0.0947 -1.8457,0.13183 -0.128,0.41438 -0.4208,0.81332 -0.3808,1.24512 0.037,0.38484 0.1993,0.83412 0.4248,1.30371 -0.3821,-0.33313 -0.7674,-0.65751 -1.1573,-0.98145 -0.073,-0.0687 -0.1475,-0.13581 -0.2197,-0.20507 -0.8425,-0.70154 -1.6595,-1.41513 -2.5195,-2.09473 -0.1768,-0.13962 -0.3978,-0.32469 -0.6006,-0.49805 0.092,-0.40984 0.1011,-0.73582 -0.2783,-0.43945 -0.043,0.0336 -0.1,0.0577 -0.1465,0.0879 -0.3235,-0.26498 -0.6587,-0.53285 -1.0254,-0.74707 l -0.015,-0.0146 c -0.047,-0.06 -0.099,-0.11594 -0.1464,-0.17578 -3.8157,-4.79033 0.01,0.0931 -3.9258,-4.95117 -0.029,-0.0396 -0.06,-0.0775 -0.088,-0.11719 0.83,-0.0765 1.2473,-0.10086 2.0654,-0.17578 1.1387,0.47483 3.1058,1.26294 3.6914,1.25977 0.337,-0.002 0.9036,-0.1475 0.8936,-0.4834 -0.016,-0.40521 -0.1764,-0.78037 -0.4102,-1.12793 209.4102,-18.92764 15.9353,15.02657 44.1504,24.75586 19.1871,6.77183 29.8737,-0.49086 34.9072,-7.1045 -2.2762,6.80991 -5.3119,18.25797 -8.8476,39.33106 z m 22.6025,-59.95606 c 4.1491,-12.41264 5.3892,-7.08082 0,0 z m -25.1806,39.03809 c 0.1101,-10e-4 0.2278,-0.0151 0.3662,-0.0586 2.7359,-0.86056 5.4135,-1.93172 8.042,-3.07618 1.0839,-0.4871 2.1305,-1.02173 3.1933,-1.55273 1.0375,-0.5185 0.5251,-1.57319 -0.5127,-1.05469 -1.0444,0.52183 -2.0844,1.05879 -3.1494,1.53809 -2.5541,1.11286 -5.1547,2.13428 -7.8076,2.98828 -0.9658,0.31104 -0.9028,1.22584 -0.1318,1.21582 z m 0.791,-8.77441 c 0.8785,0.0333 1.0338,-0.91369 0.015,-1.17188 -1.6776,-0.425 -3.4091,-0.54862 -5.1269,-0.70312 -1.5433,-0.1229 -3.0861,-0.26671 -4.6289,-0.39551 -1.1586,-0.0965 -1.244,1.07487 -0.088,1.17187 1.5403,0.1286 3.0734,0.25806 4.6142,0.38086 1.6446,0.1477 3.2996,0.27423 4.9073,0.67383 0.1055,0.0262 0.2167,0.0405 0.3076,0.0439 z m -35.4785,-26.11817 c -1.8366,-0.0218 -3.1408,-0.85729 -4.9219,-1.62597 -0.4891,-0.35337 -0.9829,-0.69617 -1.4795,-1.04004 0.3368,-0.30128 0.2097,-0.91492 0.3223,-1.36231 -0.179,-0.63663 -0.288,-1.29382 -0.542,-1.90429 -0.6464,-1.55191 -1.7856,-3.25757 -2.8565,-4.52637 -0.5853,-0.69348 -1.7621,-1.97306 -2.8711,-2.75391 -0.036,-1.14083 0.039,-2.2708 0.4395,-3.35449 0.185,-0.50129 0.4087,-1.0194 0.7617,-1.4209 0.3333,-0.3794 0.8321,-0.57426 1.2451,-0.86426 0.6014,-0.0731 1.1978,-0.26972 1.8018,-0.21972 1.8763,0.15674 3.9072,1.07395 5.4346,2.08007 2.1081,1.38868 4.1214,3.32032 5.4931,5.44922 0.6499,1.00926 1.0348,2.16865 1.5528,3.25196 0.173,1.02788 0.5124,2.03384 0.5127,3.07617 2e-4,2.53626 -1.369,4.8628 -4.0723,5.1709 -0.2871,0.0327 -0.558,0.0471 -0.8203,0.0439 z m 10.9131,-0.62988 c 1.5625,0.0641 2.5323,-0.71117 2.9003,-2.21191 0.21,-0.83719 0.194,-1.74388 0.044,-2.59278 -0.1219,-0.69072 -0.2711,-1.27236 -0.4541,-1.80176 0.625,0.19252 1.2599,0.31717 1.8896,0.21973 2.0831,-0.32232 1.4291,-2.05013 0.7471,-3.03223 -0.5533,-0.7969 -1.3388,-1.40617 -2.0068,-2.10937 -0.2458,-0.17555 -0.4885,-0.34904 -0.7324,-0.52734 1.4273,0.33515 2.9588,0.53535 4.3652,0.27832 0.7355,-0.1345 1.3744,-0.56411 2.0654,-0.84961 0.4008,-0.49898 0.9082,-0.92514 1.2012,-1.49414 0.558,-1.08511 0.6664,-2.54448 0.4394,-3.72071 -0.108,-0.56033 -0.3355,-1.09108 -0.6005,-1.59668 -0.2976,-0.5692 -0.7902,-1.00364 -1.2452,-1.43554 -0.845,-0.79864 -1.6007,0.1067 -0.7617,0.9082 0.3924,0.37536 0.836,0.74662 1.084,1.24512 0.622,1.2587 0.6593,3.02029 -0.044,4.26269 -0.237,0.41977 -0.6428,0.71224 -0.9668,1.06934 -0.53,0.1721 -1.0437,0.44669 -1.5967,0.51269 -1.7267,0.2049 -3.5311,-0.23647 -5.1563,-0.71777 -0.5889,-0.1744 -1.2988,-0.43152 -2.0215,-0.70313 -1.508,-0.94439 -3.5232,-2.10413 -4.8925,-2.70996 -0.6569,-0.2906 -1.3292,-0.81537 -2.0362,-0.68847 -0.1237,0.0222 -0.2258,0.11054 -0.3076,0.21972 -0.3508,-0.0327 -0.7121,5e-4 -1.04,0.10254 -0.405,0.12609 -0.3757,0.86547 -0.2197,1.25977 0.5125,1.29143 3.3962,4.07838 4.1162,4.83398 2.2353,1.72589 3.6662,3.08739 6.2256,4.13086 0.3676,0.75507 0.6509,1.58452 0.8349,2.70996 0.118,0.71956 0.094,1.48062 -0.1025,2.18262 -0.123,0.4395 -0.4243,0.87193 -0.8203,1.09863 -0.6984,0.39966 -2.1075,-0.42053 -2.5635,-0.61523 -0.5453,-0.35423 -1.081,-0.71514 -1.626,-1.06934 -0.973,-0.63203 -1.6255,0.3768 -0.6445,0.9961 0.6204,0.39167 1.2403,0.78027 1.8603,1.17187 0.6873,0.226 1.3425,0.64383 2.0655,0.67383 z m -18.2373,-2.70996 c -0.1782,-0.1367 -0.3564,-0.26439 -0.5274,-0.41016 -1.6638,-1.41781 -3.3576,-3.41087 -4.6582,-5.1709 -0.1604,-0.21713 -0.3112,-0.43932 -0.4687,-0.65918 0.3689,0.27751 0.8968,-0.0105 0.8349,-0.80566 -0.031,-0.40471 -0.067,-0.81894 -0.1025,-1.23047 0.04,0.0338 0.078,0.0673 0.1172,0.10254 1.768,1.58856 3.5471,3.92736 4.4531,6.1377 0.219,0.53331 0.3061,1.11272 0.4541,1.66992 -0.049,0.10657 -0.072,0.2368 -0.1025,0.36621 z m -4.4825,-0.35156 c -0.7448,-0.46757 -1.4956,-0.92528 -2.2412,-1.39161 0.2743,0.10726 0.5057,0.19485 0.6738,0.23438 0.057,0.0133 0.1187,0.0199 0.1758,0.0293 0.461,0.37964 0.9262,0.75381 1.3916,1.12793 z m 1.5674,-0.73243 c -0.033,-0.0212 -0.07,-0.0367 -0.1025,-0.0586 -0.2317,-0.15685 -0.4489,-0.31698 -0.6739,-0.4834 0.019,-0.0731 0.033,-0.14631 0.059,-0.21972 0.2363,0.26093 0.4757,0.5114 0.7178,0.76171 z m -1.4648,-1.06933 c -0.2321,-0.1831 -0.4599,-0.36896 -0.6885,-0.55664 0.064,-0.0817 0.1214,-0.18565 0.1611,-0.30762 0.5207,0.56669 0.7246,0.75286 0.5274,0.86426 z m -1.7285,-1.43555 c -1.9786,-1.66865 -3.5418,-3.17974 -5.4493,-4.98047 -0.099,-0.10228 -0.2436,-0.24223 -0.3515,-0.35156 0.1269,-0.0796 0.2495,-0.17461 0.3662,-0.27832 0.3923,0.30975 0.7855,0.62033 1.1719,0.9375 0.1068,0.0878 0.2271,0.18731 0.3369,0.27832 1.2102,1.2553 3.1625,2.67823 3.9258,4.39453 z m -3.5596,-0.80566 c -0.7698,-0.38437 -1.5367,-0.78904 -2.2998,-1.18653 0.01,-0.0857 0,-0.16996 0,-0.24902 0.085,-0.0192 0.176,-0.0304 0.2637,-0.0586 0.4617,0.33805 0.9216,0.66485 1.3916,1.01074 l 0.015,0.0147 c 0.1834,0.12679 0.3628,0.26183 0.542,0.39551 0.031,0.0228 0.057,0.0504 0.088,0.0732 z m 32.4316,-0.0732 c -0.024,7e-4 -0.045,-0.009 -0.073,-0.0146 -0.1846,-0.0393 -0.43,-0.18688 -0.6006,-0.23438 -0.7819,-0.21876 -1.4189,-0.42338 -2.0068,-0.64453 -0.568,-1.05103 -1.2936,-1.99114 -2.1827,-3.36914 -0.5975,-0.62819 -1.2992,-1.41218 -2.0507,-2.19727 0.3452,0.13839 0.6813,0.27991 1.0254,0.41016 1.191,0.75495 1.9605,1.33963 3.7939,2.65137 0.1,0.10689 2.6339,2.23492 2.2559,3.28125 -0.027,0.0749 -0.088,0.11507 -0.1612,0.11719 z m -4.6435,-1.83106 c -0.412,-0.23634 -0.8607,-0.50439 -1.3623,-0.83496 -1.0741,-0.70776 -2.032,-1.58275 -3.0469,-2.37305 -0.7962,-0.84233 -1.6397,-1.63373 -2.3877,-2.51953 -0.4345,-0.5143 -0.8584,-1.04119 -1.2158,-1.61133 0.2311,0.2403 0.6759,0.33272 0.9668,0.52735 0.3183,0.15925 0.6208,0.32083 0.9375,0.4834 3.3809,2.69583 0.8887,0.32438 5.0244,4.70214 0.3953,0.61978 0.7561,1.1368 1.084,1.62598 z m -23.9942,-0.23437 c -0.3209,-0.46056 -0.6258,-0.92849 -0.8935,-1.4209 -0.814,-1.49643 -0.8791,-1.2294 -0.2051,-1.9043 0.244,0.26721 0.5275,0.48142 0.8203,0.68848 0.044,0.73452 0.1159,1.47626 0.1758,2.19726 h -0.015 c 0.015,0.18067 0.059,0.31812 0.1172,0.43946 z m -9.2138,-4.05762 c -1.0625,-1.03142 -1.4768,-1.45644 -2.0508,-2.53418 0.042,0.0614 0.097,0.11676 0.1318,0.14648 0.1288,0.10879 0.2551,0.19972 0.3955,0.29297 0.038,0.23666 0.3541,0.5728 0.4981,0.79102 0.2704,0.40869 0.6362,0.85685 1.0254,1.30371 z m 2.7539,-0.77637 c -0.026,-0.0455 -0.065,-0.0851 -0.088,-0.13183 -0.026,-0.0475 0.098,0.0808 0.088,0.13183 z m -8.6133,-1.69922 c -0.6629,-0.40291 -1.3207,-0.795 -2.3145,-1.3916 -0.1248,0.0201 -0.2531,0.0205 -0.3808,0.0293 -0.2332,-0.23963 -3.4636,-2.74499 -3.3692,-2.75391 0.6444,-0.0608 0.871,-0.0718 1.5088,-0.13183 0.1116,0.0899 0.3017,0.24612 0.3955,0.32226 1.2047,0.97754 2.4123,1.95006 3.6035,2.94434 v 0.0146 c 0.026,0.16328 0.099,0.34325 0.1612,0.4541 0.1057,0.1879 0.2475,0.35575 0.3955,0.51269 z m 2.6074,-0.46875 c -0.274,-0.25714 -0.5439,-0.52209 -0.8203,-0.77636 -0.3408,-0.31282 -0.6045,-0.80093 -0.9961,-1.01075 -0.01,-0.0105 -0.019,-0.0196 -0.029,-0.0293 -0.01,-0.005 -0.019,-0.0104 -0.029,-0.0147 -0.088,-0.0793 -0.1739,-0.13469 -0.293,-0.11719 -0.096,0.0141 -0.1967,0.0638 -0.2783,0.13184 l -0.015,0.0146 c -0.083,0.0427 -0.1641,0.0956 -0.2344,0.16114 -0.9204,-0.7651 -1.8531,-1.51691 -2.7832,-2.27051 1.818,-0.17023 2.5859,-0.20297 4.3506,-0.36621 0.1765,0.23878 0.407,0.54632 0.498,0.67383 2.7231,3.49493 2.37,3.04532 2.7686,3.53027 -0.477,-0.21585 -0.9526,-0.42531 -1.4502,-0.35156 -0.398,0.059 -0.6016,0.21419 -0.6885,0.4248 z m 28.3154,-0.30761 c -0.048,-0.0823 -0.088,-0.16465 -0.1318,-0.24903 -0.027,-0.0516 0.027,-0.10946 0.1025,-0.13183 -0.013,0.13531 -0.01,0.27083 0.029,0.38086 z m -22.0019,-4.13086 c -0.3433,-0.0738 -0.6878,-0.16625 -1.0254,-0.26368 0.2347,0.0556 0.4984,0.038 0.7324,0.10254 0.079,0.0218 0.266,0.11326 0.3076,0.14649 z m -1.0254,-0.26368 c -0.099,-0.0285 -0.196,-0.0574 -0.293,-0.0879 0.023,-0.002 0.035,-0.0125 0.059,-0.0146 l 0.015,0.0146 c 0.071,0.0397 0.1415,0.0694 0.2197,0.0879 z" />
    <path
       d="M1156 878 c-32 -45 -10 -82 33 -59 26 14 43 45 35 65 -9 23 -50 19 -68 -6z"
       id="path2"
       style="fill:#000000;fill-opacity:1" />
    <path
       d="M2428 453 c-22 -49 -46 -100 -54 -115 -13 -26 -13 -28 4 -28 11 0 26 16 40 45 l22 45 85 0 c47 0 85 -2 85 -4 0 -2 -7 -20 -15 -39 -19 -46 -19 -47 4 -47 18 0 51 65 51 102 0 9 5 20 10 23 12 7 50 79 50 95 0 6 -44 10 -121 10 l-120 0 -41 -87z m222 29 c0 -23 -30 -32 -102 -32 -43 0 -78 2 -78 4 0 30 15 36 96 36 46 0 84 -4 84 -8z"
       id="path3"
       style="fill:#000000;fill-opacity:1" />
    <path
       d="M2758 513 c-34 -37 -88 -146 -88 -178 l0 -25 100 0 c94 0 103 2 126 25 32 32 98 170 90 190 -4 12 -25 15 -104 15 -94 0 -99 -1 -124 -27z m182 -28 c0 -3 -14 -32 -30 -65 l-30 -60 -80 0 c-93 0 -94 3 -55 80 l25 50 85 0 c47 0 85 -2 85 -5z"
       id="path4"
       style="fill:#000000;fill-opacity:1" />
    <path
       d="M2996 441 c-29 -58 -46 -105 -43 -115 5 -13 23 -16 105 -16 94 0 99 1 124 28 22 23 108 180 108 197 0 3 -8 5 -17 5 -12 0 -32 -28 -63 -88 l-45 -87 -74 -3 c-41 -2 -78 1 -83 6 -4 4 10 45 32 90 33 70 37 82 22 82 -13 0 -32 -30 -66 -99z"
       id="path5"
       style="fill:#000000;fill-opacity:1" />
    <path
       d="M3275 430 c-30 -60 -55 -112 -55 -115 0 -3 8 -5 18 -5 11 0 26 16 40 45 l22 45 100 0 c88 0 102 2 121 21 24 24 60 99 53 111 -3 4 -59 8 -125 8 l-119 0 -55 -110z m245 52 c0 -23 -30 -32 -107 -32 -46 0 -83 2 -83 4 0 31 15 36 101 36 49 0 89 -4 89 -8z"
       id="path6"
       style="fill:#000000;fill-opacity:1" />
    <path
       d="M210 175 c0 -8 5 -15 10 -15 6 0 10 -25 10 -55 0 -42 3 -55 15 -55 12 0 15 13 15 55 0 30 5 55 10 55 6 0 10 7 10 15 0 10 -11 15 -35 15 -24 0 -35 -5 -35 -15z"
       id="path7"
       style="fill:#000000;fill-opacity:1" />
    <path
       d="M534 176 c-3 -7 -4 -37 -2 -66 4 -63 25 -80 30 -23 4 52 32 53 36 1 5 -56 24 -46 20 10 -3 43 -5 47 -30 50 -20 2 -28 9 -28 23 0 22 -18 26 -26 5z"
       id="path8"
       style="fill:#000000;fill-opacity:1" />
    <path
       d="M872 123 c2 -42 8 -68 16 -71 9 -3 12 15 12 67 0 57 -3 71 -15 71 -13 0 -15 -12 -13 -67z"
       id="path9"
       style="fill:#000000;fill-opacity:1" />
    <path
       d="M1332 178 c-18 -18 -15 -29 14 -59 27 -28 25 -61 -2 -38 -17 14 -29 6 -21 -16 7 -18 48 -20 65 -3 18 18 14 36 -13 60 -28 24 -33 43 -10 35 19 -8 31 13 14 24 -19 12 -33 11 -47 -3z"
       id="path10"
       style="fill:#000000;fill-opacity:1" />
    <path
       d="M1534 176 c-10 -25 1 -119 14 -124 9 -3 12 15 12 67 0 66 -12 93 -26 57z"
       id="path11"
       style="fill:#000000;fill-opacity:1" />
    <path
       d="M1700 171 c0 -11 -6 -22 -12 -25 -10 -5 -10 -7 0 -12 6 -3 12 -23 12 -45 0 -21 5 -39 10 -39 6 0 10 18 10 39 0 22 6 42 13 45 10 5 10 7 0 12 -7 3 -13 14 -13 25 0 10 -4 19 -10 19 -5 0 -10 -9 -10 -19z"
       id="path12"
       style="fill:#000000;fill-opacity:1" />
    <path
       d="M1747 184 c-8 -8 1 -24 14 -24 5 0 9 7 9 15 0 15 -12 20 -23 9z"
       id="path13"
       style="fill:#000000;fill-opacity:1" />
    <path
       d="M300 131 c-15 -29 -12 -46 9 -65 21 -19 62 -18 69 2 3 9 -3 11 -21 7 -14 -4 -28 -2 -31 4 -5 7 5 11 28 11 42 0 50 10 30 38 -20 28 -69 30 -84 3z m65 -11 c4 -6 -5 -10 -19 -10 -14 0 -26 5 -26 10 0 6 9 10 19 10 11 0 23 -4 26 -10z"
       id="path14"
       style="fill:#000000;fill-opacity:1" />
    <path
       d="M418 125 c-20 -44 17 -83 67 -71 32 8 24 21 -13 21 -22 0 -27 5 -27 25 0 20 5 25 25 26 40 0 38 19 -2 22 -33 3 -40 0 -50 -23z"
       id="path15"
       style="fill:#000000;fill-opacity:1" />
    <path
       d="M650 101 c0 -59 17 -69 22 -13 2 25 8 37 18 37 10 0 16 -12 18 -37 5 -56 24 -46 20 10 -3 47 -3 47 -40 50 l-38 3 0 -50z"
       id="path16"
       style="fill:#000000;fill-opacity:1" />
    <path
       d="M766 134 c-20 -19 -20 -34 0 -62 21 -30 59 -29 80 3 15 23 15 27 0 50 -19 29 -56 33 -80 9z m62 -30 c3 -22 -21 -39 -39 -28 -11 6 -12 38 -2 48 13 13 38 1 41 -20z"
       id="path17"
       style="fill:#000000;fill-opacity:1" />
    <path
       d="M931 136 c-21 -26 -10 -69 22 -80 23 -8 31 -6 49 12 18 18 20 26 12 49 -7 21 -17 29 -40 31 -18 2 -36 -3 -43 -12z m57 -30 c2 -10 -1 -23 -7 -29 -15 -15 -46 16 -37 38 8 21 40 15 44 -9z"
       id="path18"
       style="fill:#000000;fill-opacity:1" />
    <path
       d="M1053 143 c-7 -2 -13 -20 -13 -38 0 -36 28 -62 56 -51 8 3 14 0 14 -6 0 -7 -13 -9 -35 -5 -38 6 -47 -6 -16 -23 28 -14 38 -13 61 10 15 15 20 33 20 70 l0 50 -37 -1 c-21 0 -44 -3 -50 -6z m55 -41 c3 -16 -2 -22 -17 -22 -24 0 -35 15 -27 36 9 23 40 13 44 -14z"
       id="path19"
       style="fill:#000000;fill-opacity:1" />
    <path
       d="M1170 104 c15 -34 17 -50 10 -65 -8 -15 -7 -19 3 -19 11 0 67 105 67 126 0 14 -22 0 -34 -23 l-14 -28 -13 28 c-7 15 -18 27 -25 27 -10 0 -8 -11 6 -46z"
       id="path20"
       style="fill:#000000;fill-opacity:1" />
    <path
       d="M1424 125 c-15 -23 -15 -27 0 -50 21 -32 59 -33 80 -3 20 28 20 43 0 62 -24 24 -61 20 -80 -9z m64 -19 c4 -21 -14 -37 -35 -29 -14 5 -18 35 -6 47 12 12 38 1 41 -18z"
       id="path21"
       style="fill:#000000;fill-opacity:1" />
    <path
       d="M1580 119 c0 -42 17 -69 43 -69 33 0 47 19 47 62 0 52 -28 53 -32 1 -2 -21 -7 -38 -13 -38 -5 0 -11 17 -13 38 -4 47 -32 53 -32 6z"
       id="path22"
       style="fill:#000000;fill-opacity:1" />
    <path
       d="M1750 100 c0 -27 5 -50 10 -50 6 0 10 23 10 50 0 28 -4 50 -10 50 -5 0 -10 -22 -10 -50z"
       id="path23"
       style="fill:#000000;fill-opacity:1" />
    <path
       d="M1802 138 c-27 -27 -3 -88 34 -88 31 0 54 21 54 48 0 35 -16 52 -50 52 -14 0 -31 -5 -38 -12z m62 -25 c4 -9 0 -23 -9 -32 -13 -14 -17 -14 -32 1 -13 14 -14 20 -3 32 16 21 36 20 44 -1z"
       id="path24"
       style="fill:#000000;fill-opacity:1" />
    <path
       d="M1910 101 c0 -39 4 -51 15 -51 10 0 15 10 15 34 0 38 17 57 31 35 5 -8 9 -26 9 -41 0 -16 5 -28 11 -28 6 0 9 19 7 48 l-3 47 -42 3 -43 3 0 -50z"
       id="path25"
       style="fill:#000000;fill-opacity:1" />
    <path
       d="M2023 133 c-4 -10 2 -23 15 -34 28 -22 28 -32 1 -24 -15 5 -20 3 -17 -6 7 -21 43 -22 59 -3 12 14 10 19 -14 40 -26 22 -26 24 -8 24 12 0 21 5 21 10 0 17 -50 11 -57 -7z"
       id="path26"
       style="fill:#000000;fill-opacity:1" />
  </g>
  <path
     id="path27"
     style="fill:#ffffff;fill-opacity:0;stroke-width:0.75"
     d="M 187.76367,58.529297 176.354,62.008301 h 0.10254 l 2.35254,6.65039 12.89356,-5.269043 z m 0.31055,4.26123 c 0.0879,-0.0033 0.10338,0.09137 0.001,0.117188 -0.16776,0.0425 -0.34091,0.05486 -0.51269,0.07031 -0.15433,0.01229 -0.30861,0.02667 -0.46289,0.03955 -0.11586,0.0097 -0.1244,-0.107487 -0.009,-0.117187 0.15403,-0.01286 0.30734,-0.02581 0.46142,-0.03809 0.16446,-0.01477 0.32996,-0.02742 0.49073,-0.06738 0.0105,-0.0026 0.0217,-0.004 0.0308,-0.0044 z" />
  <path
     style="fill:#000000;fill-opacity:1;stroke-width:0.75"
     d="m 176.34754,62.030209 0.064,-0.01919"
     id="path29" />
  <path
     id="path55"
     style="fill:#000000;fill-opacity:1;stroke:#000000;stroke-width:0.015625;stroke-opacity:1"
     transform="scale(0.75)"
     d="m 251.00977,79.804688 c -0.008,-2.4e-4 -0.008,0.0123 -0.002,0.02734 0.0763,0.180105 0.12804,0.584235 0.10157,0.798828 -0.0547,0.443553 -0.38732,1.034866 -0.98438,1.751954 -0.54844,0.658689 -1.37796,1.484266 -2.39648,2.386718 -0.85099,0.753999 -1.61959,1.396255 -2.90625,2.431641 -0.16975,0.136595 -0.30479,0.251859 -0.30079,0.255859 0.004,0.004 0.0267,-0.0063 0.0508,-0.02344 0.0241,-0.01715 0.0733,-0.03943 0.10742,-0.04883 0.0837,-0.02303 0.16878,0.01603 0.17578,0.08008 0.005,0.04118 0.008,0.0431 0.0703,0.0332 0.0438,-0.0069 0.12043,-0.04733 0.23047,-0.121094 0.16951,-0.113622 0.47489,-0.256324 0.64648,-0.302734 0.0586,-0.01585 0.15365,-0.0256 0.24415,-0.02539 0.25149,5.72e-4 0.42779,0.07363 0.58203,0.240235 0.14967,0.161658 0.21484,0.340878 0.21484,0.597656 0,0.240729 -0.0554,0.461499 -0.17773,0.716797 -0.12435,0.259429 -0.22059,0.396102 -0.43164,0.613281 -0.37002,0.380697 -0.80428,0.628581 -1.19727,0.681641 -0.10523,0.01417 -0.1483,0.01305 -0.25,-0.0078 -0.14978,-0.03076 -0.19123,-0.05151 -0.30469,-0.140625 -0.0656,-0.05154 -0.10092,-0.09486 -0.13672,-0.167969 -0.0616,-0.125962 -0.11132,-0.318701 -0.11132,-0.435547 v -0.0918 h -0.0664 c -0.14229,-3.7e-4 -0.18299,-0.0152 -0.20899,-0.07617 -0.0164,-0.03846 -0.0226,-0.08528 -0.0176,-0.146485 l 0.008,-0.08984 -0.0332,0.02734 c -0.0188,0.01502 -0.14072,0.116633 -0.27149,0.226563 -0.19296,0.162175 -0.23828,0.207694 -0.23828,0.240234 0,0.03481 -0.006,0.03965 -0.0391,0.03125 -0.0779,-0.01956 -0.14231,0.04646 -0.53516,0.546875 l -0.17383,0.220703 0.12891,0.0098 c 0.12154,0.0093 0.13741,0.0071 0.26172,-0.04297 0.0724,-0.02915 0.18289,-0.06874 0.24609,-0.08789 0.0986,-0.02988 0.12348,-0.03325 0.17578,-0.01758 0.0559,0.01673 0.0606,0.02373 0.0606,0.07422 0,0.0303 -0.009,0.06858 -0.0176,0.08594 -0.009,0.01735 -0.0114,0.03476 -0.008,0.03906 0.0166,0.01659 3.1708,0.289681 4.76758,0.41211 2.49123,0.191007 3.99118,0.280374 5.60937,0.333984 0.34563,0.01149 1.44043,0.0075 1.6875,-0.0059 0.63146,-0.03406 0.97607,-0.108915 1.03907,-0.226563 0.0189,-0.03534 0.0174,-0.04767 -0.01,-0.09766 -0.0957,-0.178369 -0.68061,-0.459328 -1.78516,-0.857422 -0.22876,-0.08245 -0.81679,-0.287955 -1.30664,-0.455078 -0.48984,-0.167122 -1.07344,-0.36583 -1.29687,-0.44336 -1.88709,-0.654775 -2.81628,-1.072941 -3.12305,-1.404296 -0.10473,-0.11327 -0.13267,-0.188587 -0.10547,-0.279297 0.0366,-0.122267 0.17303,-0.2052 0.54883,-0.328125 0.0643,-0.02105 0.12713,-0.03993 0.18945,-0.05859 -0.0137,-0.104859 -0.0238,-0.177546 0.0332,-0.294922 0.0335,-0.06915 0.0802,-0.133507 0.13672,-0.185547 0.13486,-0.124093 0.35376,-0.234054 0.53906,-0.242187 0.10992,-0.0048 0.21595,0.03917 0.32422,0.05859 0.15222,0.02732 0.0297,0.09148 -0.125,0.09375 -0.072,0.0011 -0.146,-0.0089 -0.2168,0.0039 -0.21035,0.03795 -0.44454,0.152887 -0.5332,0.361328 -0.0236,0.05603 -0.0187,0.10843 -0.01,0.162109 0.53393,-0.147145 1.0069,-0.206255 1.52539,-0.193359 0.58679,0.01459 1.0379,0.124409 1.51563,0.367187 0.33239,0.168918 0.59411,0.36564 0.88476,0.667969 0.0958,0.09969 0.17386,0.174969 0.17383,0.167969 0,-0.007 -0.028,-0.103125 -0.0625,-0.214844 -0.33678,-1.091609 -0.67909,-2.624124 -1.01562,-4.560547 l -0.0605,-0.359375 -0.9043,-1.355469 c -0.49662,-0.74582 -0.90901,-1.357183 -0.91601,-1.357421 z m -0.33789,2.738281 c 0.0224,0.0026 0.0514,0.01068 0.0977,0.02539 0.36044,0.114588 0.96135,0.359212 1.29688,0.527344 0.21142,0.105968 0.25034,0.144548 0.21484,0.210938 -0.0289,0.05397 -0.11586,0.03555 -0.30469,-0.06055 -0.24228,-0.123302 -0.64985,-0.294144 -1.01562,-0.425781 -0.17188,-0.06186 -0.32836,-0.122326 -0.34766,-0.134766 -0.0506,-0.03277 -0.0492,-0.110656 0.004,-0.134766 0.0164,-0.0075 0.0323,-0.01043 0.0547,-0.0078 z m 0.75195,0.570312 c 0.039,-0.0021 0.0782,0.03399 0.0781,0.111328 -2.6e-4,0.317983 0.0401,0.634455 0.0625,0.951172 0.009,0.115663 0.0148,0.229957 0.0215,0.345703 0.0213,0.448033 0.0117,0.229372 0.0293,0.658204 0.006,0.154559 -0.14958,0.160408 -0.15625,0.0059 -0.0172,-0.427112 -0.008,-0.208503 -0.0293,-0.654297 -0.007,-0.114561 -0.0115,-0.22927 -0.0195,-0.34375 -0.0225,-0.318273 -0.0647,-0.635534 -0.0645,-0.955078 6e-5,-0.07737 0.0391,-0.117081 0.0781,-0.119141 z m -0.6582,0.607422 c 0.11711,-0.0044 0.13774,0.121825 0.002,0.15625 -0.22368,0.05667 -0.45456,0.07315 -0.6836,0.09375 -0.20577,0.01639 -0.41148,0.03557 -0.61718,0.05273 -0.15448,0.01287 -0.16591,-0.143319 -0.0117,-0.15625 0.20537,-0.01715 0.40979,-0.03441 0.61523,-0.05078 0.21928,-0.01969 0.43994,-0.03656 0.6543,-0.08984 0.0141,-0.0035 0.0289,-0.0054 0.041,-0.0059 z m -3.24805,3.5625 c 0.26259,-0.0014 0.40741,0.20204 0.38281,0.53711 -0.005,0.07305 -0.0204,0.17149 -0.0332,0.21875 -0.0128,0.04726 -0.0233,0.0907 -0.0234,0.0957 -1.1e-4,0.005 0.0555,0.0059 0.12305,0.002 0.21012,-0.01216 0.29883,0.04268 0.29883,0.183594 0,0.115119 -0.0628,0.220762 -0.23438,0.394531 l -0.15039,0.152344 0.0781,-0.01172 c 0.0437,-0.0066 0.16446,-0.01185 0.26758,-0.01172 0.17905,2.3e-4 0.19278,0.0025 0.30469,0.05273 0.24726,0.111082 0.375,0.321947 0.375,0.617188 0,0.2047 -0.0735,0.377094 -0.2168,0.513672 -0.0949,0.09046 -0.14604,0.109756 -0.18554,0.07031 -0.0424,-0.04247 -0.0214,-0.105235 0.0664,-0.197265 0.12626,-0.132373 0.15625,-0.208968 0.15625,-0.400391 0,-0.18552 -0.0282,-0.258818 -0.13476,-0.363281 -0.14533,-0.14241 -0.41846,-0.1662 -0.79492,-0.06836 -0.26286,0.06831 -0.39239,0.120176 -0.59375,0.240235 -0.26472,0.157813 -0.63316,0.339844 -0.68946,0.339844 -0.0264,0 -0.0948,-0.0093 -0.15039,-0.01953 -0.25284,-0.04659 -0.18245,-0.222629 0.26953,-0.677734 0.28993,-0.291943 0.56159,-0.502292 0.82032,-0.636719 l 0.16992,-0.08789 0.0332,-0.08984 c 0.0898,-0.23835 0.10142,-0.475285 0.0273,-0.601563 -0.0873,-0.148924 -0.19434,-0.133542 -0.52929,0.07617 -0.14937,0.09353 -0.21765,0.107553 -0.24805,0.05078 -0.0294,-0.05495 0.004,-0.100659 0.14648,-0.193359 0.19656,-0.128124 0.33865,-0.18488 0.46485,-0.185547 z" />
  <path
     id="path56"
     style="fill:#000000;fill-opacity:1;stroke:#000000;stroke-width:0.015625;stroke-opacity:1"
     transform="scale(0.75)"
     d="m 251.01172,79.800781 c -0.006,0.0065 2.6e-4,0.04559 0.0195,0.107422 0.0274,0.08802 0.0481,0.187883 0.0703,0.339844 0.0146,0.100865 0.01,0.371011 -0.008,0.462891 -0.0659,0.344235 -0.29279,0.782157 -0.66406,1.279296 -0.33485,0.448368 -0.62568,0.775639 -1.21875,1.375 -1.02302,1.033878 -2.12756,2.001947 -4.12305,3.617188 -0.31632,0.256042 -0.57136,0.469156 -0.56836,0.472656 0.004,0.0035 0.0384,-0.01102 0.0781,-0.0332 0.0397,-0.02217 0.0945,-0.04221 0.12109,-0.04297 0.0586,-0.0017 0.12972,0.04823 0.13672,0.0957 0.009,0.06057 0.11028,0.0297 0.30664,-0.09766 0.18137,-0.117637 0.47649,-0.254301 0.65039,-0.300781 0.0605,-0.01618 0.15528,-0.0278 0.23438,-0.02734 0.47618,0.0027 0.79243,0.336565 0.79296,0.835938 2.6e-4,0.252433 -0.0528,0.459741 -0.1914,0.740234 -0.0637,0.128906 -0.1484,0.276875 -0.1875,0.328125 -0.49632,0.650834 -1.23093,1.043022 -1.72852,0.921875 -0.11646,-0.02835 -0.17726,-0.06198 -0.28515,-0.162109 -0.10658,-0.09892 -0.19209,-0.318885 -0.20899,-0.53711 l -0.008,-0.121093 h -0.0508 c -0.0276,0 -0.0834,-0.0044 -0.12305,-0.0098 -0.0676,-0.0093 -0.0733,-0.01426 -0.0977,-0.07813 -0.0184,-0.04935 -0.0236,-0.09046 -0.0156,-0.148438 l 0.0117,-0.08008 -0.0449,0.0332 c -0.024,0.01792 -0.14493,0.119037 -0.26953,0.22461 -0.17611,0.149182 -0.22843,0.201165 -0.23243,0.234375 -0.004,0.03658 -0.009,0.0413 -0.041,0.0332 -0.0743,-0.01866 -0.20103,0.114787 -0.60547,0.636719 l -0.10547,0.134765 0.13086,0.0098 c 0.12618,0.01024 0.13471,0.0091 0.29297,-0.05273 0.2148,-0.08388 0.32436,-0.110814 0.38086,-0.0957 0.0659,0.01766 0.0799,0.05097 0.0586,0.13086 -0.01,0.03681 -0.0147,0.06906 -0.0117,0.07227 0.008,0.0076 1.42997,0.134774 2.64063,0.236329 3.33794,0.280001 5.63714,0.432606 7.47656,0.498046 0.50107,0.01783 1.64046,0.0194 1.96094,0.002 0.61688,-0.0336 0.97484,-0.113254 1.02734,-0.228516 0.081,-0.177746 -0.46799,-0.473441 -1.72265,-0.927734 -0.36562,-0.132388 -0.86277,-0.304776 -1.9375,-0.671875 -1.77907,-0.607679 -2.59388,-0.920259 -3.20508,-1.228516 -0.44898,-0.226441 -0.69466,-0.411866 -0.75586,-0.572266 -0.027,-0.07094 -0.0261,-0.07816 0,-0.146484 0.0461,-0.120652 0.16355,-0.188295 0.5332,-0.310547 0.66211,-0.218972 1.21818,-0.310588 1.82617,-0.298828 0.18906,0.0036 0.36834,0.01208 0.39844,0.01758 0.0301,0.0055 0.11801,0.01917 0.19531,0.03125 0.69972,0.109319 1.36444,0.469109 1.87305,1.011719 0.0824,0.08792 0.15039,0.150525 0.15039,0.140625 0,-0.0099 -0.0445,-0.166409 -0.0996,-0.34961 -0.30653,-1.019071 -0.62473,-2.446951 -0.93164,-4.18164 l -0.10937,-0.615235 -0.9004,-1.347656 c -0.49516,-0.740589 -0.90325,-1.347962 -0.90625,-1.351562 -0.005,-0.0054 -0.008,-0.008 -0.01,-0.0059 z m -0.36719,2.746094 c 0.0277,-0.0071 0.0678,0.0054 0.21094,0.05273 0.42723,0.141326 1.24917,0.493401 1.37305,0.587891 0.0589,0.04496 0.0733,0.121042 0.0273,0.138672 -0.0522,0.02002 -0.0984,0.0056 -0.30273,-0.09375 -0.32781,-0.159381 -0.89972,-0.391279 -1.22852,-0.498047 -0.13983,-0.0454 -0.18732,-0.121448 -0.10742,-0.173828 0.01,-0.0062 0.0181,-0.01129 0.0273,-0.01367 z m 0.1211,1.173828 c 0.11713,-0.0044 0.13784,0.121825 0.002,0.15625 -0.22368,0.05667 -0.45456,0.07315 -0.6836,0.09375 -0.20577,0.01639 -0.41148,0.03556 -0.61718,0.05273 -0.15448,0.01287 -0.16587,-0.143317 -0.0117,-0.15625 0.20537,-0.01715 0.40979,-0.03441 0.61523,-0.05078 0.21928,-0.01969 0.43994,-0.03656 0.6543,-0.08984 0.0141,-0.0035 0.0289,-0.0054 0.041,-0.0059 z m -3.25,3.564453 c 0.31613,3.62e-4 0.45284,0.295612 0.3496,0.751953 -0.0123,0.05424 -0.0215,0.09976 -0.0215,0.101563 0,0.0018 0.0615,0.0022 0.13672,0.002 0.15814,-4.4e-4 0.22872,0.02411 0.26172,0.08789 0.0627,0.12131 -0.006,0.272821 -0.22266,0.490234 l -0.15234,0.152344 0.0703,-0.01172 c 0.11724,-0.01987 0.3464,-0.02392 0.4375,-0.0078 0.0473,0.0084 0.13883,0.04194 0.20313,0.07422 0.096,0.04827 0.1305,0.0758 0.1914,0.15625 0.0836,0.110523 0.11806,0.211941 0.13086,0.371094 0.0173,0.214375 -0.0657,0.439263 -0.21875,0.583984 -0.0858,0.08115 -0.13963,0.09863 -0.17773,0.06055 -0.0375,-0.03753 -0.0188,-0.08812 0.0801,-0.207031 0.0796,-0.09578 0.10576,-0.142243 0.12696,-0.220703 0.0535,-0.197647 0.005,-0.427833 -0.11524,-0.542969 -0.0742,-0.0711 -0.23015,-0.11914 -0.38672,-0.11914 -0.2885,0 -0.70347,0.121028 -0.99023,0.289062 -0.26644,0.156126 -0.66484,0.352191 -0.71484,0.351563 -0.0515,-6.4e-4 -0.2257,-0.03772 -0.25,-0.05273 -0.009,-0.0058 -0.0213,-0.03245 -0.0273,-0.05859 -0.0148,-0.06736 0.0466,-0.184305 0.17578,-0.335937 0.33311,-0.391097 0.70033,-0.698318 1.07813,-0.902344 0.14168,-0.07651 0.15033,-0.08291 0.17773,-0.15625 0.14214,-0.379814 0.0692,-0.740218 -0.14257,-0.705078 -0.0653,0.01085 -0.26482,0.107813 -0.4043,0.195313 -0.13481,0.08461 -0.20899,0.08133 -0.20899,-0.0078 0,-0.05201 0.0246,-0.07613 0.1836,-0.175781 0.17211,-0.107853 0.32247,-0.164186 0.42969,-0.164063 z"
     sodipodi:insensitive="true" />
  <path
     id="use60"
     style="fill:#000000;fill-opacity:1;stroke:#000000;stroke-width:0.0117188;stroke-opacity:1"
     d="m 188.25732,59.853516 c -0.006,-1.8e-4 -0.006,0.0092 -0.001,0.02051 0.0572,0.135079 0.096,0.438177 0.0762,0.599122 -0.041,0.332664 -0.29049,0.776149 -0.73828,1.313964 -0.41133,0.494017 -1.03347,1.113201 -1.79736,1.790039 -0.63824,0.565499 -1.21469,1.047192 -2.17969,1.823731 -0.12731,0.102446 -0.22859,0.188894 -0.22559,0.191894 0.003,0.003 0.02,-0.0047 0.0381,-0.01758 0.0181,-0.01286 0.055,-0.02957 0.0806,-0.03662 0.0628,-0.01727 0.12658,0.01202 0.13183,0.06006 0.004,0.03088 0.006,0.03233 0.0527,0.0249 0.0328,-0.0052 0.0903,-0.0355 0.17285,-0.09082 0.12713,-0.08522 0.35616,-0.192243 0.48486,-0.227051 0.0439,-0.01189 0.11524,-0.0192 0.18311,-0.01904 0.18862,4.29e-4 0.32084,0.05522 0.43652,0.180176 0.11225,0.121244 0.16113,0.255659 0.16113,0.448242 0,0.180547 -0.0416,0.346124 -0.1333,0.537598 -0.0933,0.194572 -0.16545,0.297076 -0.32373,0.459961 -0.27752,0.285521 -0.6032,0.471435 -0.89795,0.51123 -0.0789,0.01063 -0.11122,0.0097 -0.1875,-0.0059 -0.11233,-0.02307 -0.14342,-0.03863 -0.22851,-0.105469 -0.0492,-0.03866 -0.0757,-0.07115 -0.10254,-0.125977 -0.0462,-0.09447 -0.0835,-0.239026 -0.0835,-0.32666 v -0.06885 h -0.0498 c -0.10672,-2.78e-4 -0.13724,-0.0114 -0.15674,-0.05713 -0.0123,-0.02885 -0.017,-0.06396 -0.0132,-0.109864 l 0.006,-0.06738 -0.0249,0.02051 c -0.0141,0.01126 -0.10554,0.08747 -0.20361,0.169922 -0.14472,0.121631 -0.17871,0.155771 -0.17871,0.180176 0,0.02611 -0.005,0.02974 -0.0293,0.02344 -0.0584,-0.01467 -0.10673,0.03484 -0.40137,0.410156 l -0.13037,0.165527 0.0967,0.0073 c 0.0912,0.007 0.10306,0.0053 0.19629,-0.03223 0.0543,-0.02186 0.13717,-0.05155 0.18457,-0.06592 0.0739,-0.02241 0.0926,-0.02493 0.13184,-0.01318 0.0419,0.01255 0.0454,0.01779 0.0454,0.05566 0,0.02272 -0.007,0.05143 -0.0132,0.06445 -0.007,0.01301 -0.009,0.02607 -0.006,0.0293 0.0124,0.01244 2.3781,0.21726 3.57569,0.309082 0.13783,0.01057 0.24639,0.01807 0.37646,0.02783 0.10621,-0.124307 0.22828,-0.233284 0.36328,-0.328125 0.28852,-0.203575 0.57736,-0.407481 0.88331,-0.584472 0.0439,-0.02541 0.084,-0.03616 0.11718,-0.03516 0.11862,0.0036 0.15387,0.149284 -0.003,0.240234 -0.29848,0.173133 -0.58112,0.372542 -0.86279,0.571289 -0.0688,0.04888 -0.13495,0.101158 -0.19629,0.158203 1.46152,0.107406 2.47645,0.165819 3.52881,0.200684 0.25922,0.0086 1.08032,0.0056 1.26562,-0.0044 0.4736,-0.02554 0.73205,-0.08169 0.7793,-0.169922 0.0142,-0.02651 0.0142,-0.03574 -0.006,-0.07324 -0.0718,-0.133776 -0.51045,-0.344497 -1.33887,-0.643066 -0.17157,-0.06184 -0.61259,-0.215966 -0.97998,-0.341309 -0.36738,-0.125341 -0.80508,-0.274372 -0.97265,-0.332519 -1.41532,-0.491081 -2.11221,-0.804706 -2.34229,-1.053223 -0.0785,-0.08495 -0.0995,-0.141441 -0.0791,-0.209473 0.0274,-0.0917 0.12977,-0.1539 0.41162,-0.246094 0.0482,-0.01579 0.0953,-0.02996 0.14209,-0.04394 -0.0103,-0.07864 -0.0179,-0.133159 0.0249,-0.221191 0.0251,-0.05186 0.0601,-0.10013 0.10254,-0.13916 0.10115,-0.09307 0.26532,-0.175541 0.4043,-0.181641 0.0824,-0.0036 0.16196,0.02939 0.24316,0.04395 0.11417,0.02049 0.0222,0.06861 -0.0937,0.07031 -0.054,8.25e-4 -0.10949,-0.0067 -0.16259,0.0029 -0.15776,0.02846 -0.33341,0.114667 -0.39991,0.270997 -0.0177,0.04202 -0.0143,0.08132 -0.007,0.121582 0.40045,-0.110359 0.75518,-0.154692 1.14404,-0.14502 0.4401,0.01094 0.77842,0.09331 1.13672,0.275391 0.24929,0.126689 0.44559,0.274229 0.66358,0.500976 0.0719,0.07477 0.13039,0.131227 0.13037,0.125977 0,-0.0053 -0.021,-0.07734 -0.0469,-0.161133 -0.25258,-0.818706 -0.50932,-1.968094 -0.76172,-3.42041 l -0.0454,-0.269531 -0.67822,-1.016602 c -0.37247,-0.559364 -0.68176,-1.017888 -0.68701,-1.018066 z m -0.25341,2.053711 c 0.0168,0.002 0.0385,0.008 0.0732,0.01904 0.27033,0.08594 0.72101,0.269408 0.97265,0.395507 0.15857,0.07948 0.18776,0.108411 0.16114,0.158203 -0.0217,0.04048 -0.0869,0.02666 -0.22852,-0.04541 -0.18171,-0.09248 -0.48739,-0.220608 -0.76172,-0.319336 -0.12891,-0.04639 -0.24627,-0.09174 -0.26074,-0.101074 -0.0379,-0.02458 -0.037,-0.08299 0.003,-0.101074 0.0123,-0.0056 0.0242,-0.0078 0.041,-0.0059 z m 0.56396,0.427734 c 0.0292,-0.0016 0.0587,0.02549 0.0586,0.0835 -2e-4,0.238487 0.0301,0.475841 0.0469,0.713379 0.007,0.08675 0.0111,0.172468 0.0161,0.259277 0.016,0.336025 0.009,0.172029 0.022,0.493653 0.005,0.115919 -0.11219,0.1203 -0.11719,0.0044 -0.0129,-0.320334 -0.006,-0.156377 -0.022,-0.490722 -0.005,-0.08592 -0.009,-0.171953 -0.0147,-0.257813 -0.0169,-0.238705 -0.0484,-0.476651 -0.0483,-0.716309 4e-5,-0.05803 0.0293,-0.0878 0.0586,-0.08935 z m -0.49365,0.455566 c 0.0878,-0.0033 0.10377,0.09137 0.001,0.117188 -0.16776,0.0425 -0.34091,0.05486 -0.51269,0.07031 -0.15432,0.01229 -0.30862,0.02668 -0.46289,0.03955 -0.11586,0.0097 -0.12423,-0.107489 -0.009,-0.117187 0.15403,-0.01286 0.30733,-0.02581 0.46142,-0.03809 0.16446,-0.01477 0.32996,-0.02742 0.49073,-0.06738 0.0106,-0.0026 0.0217,-0.004 0.0308,-0.0044 z m -2.43604,2.671875 c 0.19694,-10e-4 0.30556,0.15153 0.28711,0.402832 -0.004,0.05479 -0.0153,0.128618 -0.0249,0.164063 -0.01,0.03544 -0.0176,0.06803 -0.0176,0.07178 -8e-5,0.0037 0.0416,0.0044 0.0923,0.0015 0.15759,-0.0091 0.22412,0.03201 0.22412,0.137695 0,0.08634 -0.0471,0.165572 -0.17578,0.295899 l -0.1128,0.114258 0.0586,-0.0088 c 0.0328,-0.0049 0.12334,-0.0089 0.20068,-0.0088 0.13428,1.71e-4 0.14459,0.0019 0.22852,0.03955 0.18545,0.08331 0.28125,0.241461 0.28125,0.462891 0,0.153525 -0.0551,0.282821 -0.1626,0.385254 -0.0712,0.06784 -0.10954,0.08232 -0.13916,0.05273 -0.0318,-0.03185 -0.0161,-0.07893 0.0498,-0.147949 0.0947,-0.09928 0.11719,-0.156726 0.11719,-0.300293 0,-0.13914 -0.0212,-0.194114 -0.10107,-0.272461 -0.109,-0.106807 -0.31385,-0.124649 -0.59619,-0.05127 -0.19715,0.05123 -0.2943,0.09013 -0.44532,0.180175 -0.19854,0.11836 -0.47487,0.254883 -0.51709,0.254883 -0.0198,0 -0.0711,-0.007 -0.11279,-0.01465 -0.18963,-0.03494 -0.13683,-0.166972 0.20215,-0.508301 0.21745,-0.218957 0.42119,-0.376719 0.61523,-0.477539 l 0.12745,-0.06592 0.0249,-0.06738 c 0.0674,-0.178763 0.0761,-0.356463 0.0205,-0.451172 -0.0655,-0.111693 -0.14577,-0.100157 -0.39698,0.05713 -0.11203,0.07015 -0.16323,0.08067 -0.18603,0.03809 -0.022,-0.04121 0.003,-0.07549 0.10986,-0.145019 0.14742,-0.09609 0.25398,-0.138661 0.34863,-0.139161 z" />
  <path
     id="path61"
     style="fill:#ff0000;fill-opacity:1;fill-rule:nonzero;stroke:none"
     d="m 188.07422,65.94873 c 0.0267,0.0073 0.0532,0.01692 0.0791,0.02783 -0.026,-0.01094 -0.0522,-0.02055 -0.0791,-0.02783 z m 0.13769,0.05567 c 0.0158,0.0086 0.0302,0.01781 0.0454,0.02783 -0.015,-0.0098 -0.0299,-0.01942 -0.0454,-0.02783 z m 0.0454,0.02783 c 0.0153,0.01002 0.0307,0.02079 0.0454,0.03223 -0.0149,-0.01163 -0.0299,-0.02208 -0.0454,-0.03223 z m 0.13477,0.120117 c 0.0178,0.02181 0.0346,0.04501 0.0498,0.06885 -0.0152,-0.02382 -0.0321,-0.04706 -0.0498,-0.06885 z m -0.15527,0.168457 c 0.0129,0.01878 0.0229,0.03849 0.0322,0.05859 -0.009,-0.01973 -0.0195,-0.04014 -0.0322,-0.05859 z m 0.0601,0.128906 c 0.0178,0.05543 0.0314,0.115869 0.0513,0.181641 -0.0199,-0.06577 -0.0335,-0.126272 -0.0513,-0.181641 z m -0.45557,0.13916 c 0.0226,0.0011 0.0473,0.0066 0.0747,0.01611 -0.0274,-0.0096 -0.0521,-0.01502 -0.0747,-0.01611 z m -0.0601,0.0073 c -0.0173,0.0056 -0.0326,0.01429 -0.0439,0.0249 0.0113,-0.0106 0.0267,-0.01928 0.0439,-0.0249 z m 1.64355,0.02197 c -0.0216,0.01675 -0.0434,0.0338 -0.0644,0.05127 0.0213,-0.01769 0.0426,-0.03432 0.0644,-0.05127 z m -0.36914,0.01465 c -0.0217,0.02132 -0.0435,0.04247 -0.0644,0.06445 0.0209,-0.02196 0.0427,-0.04315 0.0644,-0.06445 z m -1.02539,0.01172 c 0.037,0.01284 0.0716,0.0259 0.10694,0.03955 -0.0347,-0.01337 -0.0706,-0.02696 -0.10694,-0.03955 z m -0.3208,0.05859 c 0.002,0.01537 0.009,0.03027 0.019,0.04541 -0.0101,-0.01513 -0.0167,-0.03005 -0.019,-0.04541 z m 0.83789,0.221191 c -0.004,0.0249 -0.008,0.04832 -0.0132,0.07178 0.005,-0.02308 0.009,-0.04719 0.0132,-0.07178 z m -1.23193,0.01758 c 3e-5,0.01776 0.001,0.03512 0.003,0.05273 -0.002,-0.01753 -0.003,-0.03507 -0.003,-0.05273 z m 1.74902,0.02197 c -0.0171,0.02061 -0.0336,0.04173 -0.0498,0.06299 0.0163,-0.02143 0.0326,-0.04221 0.0498,-0.06299 z m -0.52881,0.03516 c 0.009,0.02211 0.0158,0.04474 0.019,0.06738 -0.003,-0.02279 -0.0104,-0.04524 -0.019,-0.06738 z m 0.019,0.06738 c 0.001,0.0079 0.001,0.01537 0.001,0.02344 -1e-4,-0.0081 -2.9e-4,-0.0155 -0.001,-0.02344 z m -1.46338,-0.02344 c 0.001,0.01031 0.004,0.02056 0.006,0.03076 -0.002,-0.01019 -0.004,-0.02046 -0.006,-0.03076 z m 1.875,0.05127 c -0.0105,0.01507 -0.0207,0.03005 -0.0308,0.04541 0.01,-0.01522 0.0204,-0.03048 0.0308,-0.04541 z m -1.85742,0.03369 c 0.003,0.0094 0.006,0.01859 0.009,0.02783 -0.003,-0.0095 -0.006,-0.01816 -0.009,-0.02783 z m 0.009,0.02783 c 0.009,0.02753 0.0192,0.05338 0.0322,0.0791 -0.0127,-0.02512 -0.0234,-0.05225 -0.0322,-0.0791 z m 0.42334,-0.02051 c -0.024,0.0095 -0.0477,0.01872 -0.0718,0.0293 0.0236,-0.0102 0.048,-0.01986 0.0718,-0.0293 z m -0.37061,0.13623 c 0.007,0.01214 0.0163,0.02362 0.0249,0.03516 -0.008,-0.01144 -0.0175,-0.02313 -0.0249,-0.03516 z m 0.0249,0.03516 c 0.008,0.01134 0.0168,0.023 0.0264,0.03369 -0.01,-0.01078 -0.0179,-0.02226 -0.0264,-0.03369 z m 0.0264,0.03369 c 0.01,0.01073 0.02,0.02075 0.0308,0.03076 -0.0108,-0.01005 -0.0212,-0.01999 -0.0308,-0.03076 z m 1.34912,-0.0073 c -0.0146,0.03554 -0.0284,0.0714 -0.041,0.108398 0.0126,-0.03699 0.0264,-0.07286 0.041,-0.108398 z m -0.37939,0.155273 c -0.0542,0.04134 -0.11166,0.07872 -0.16993,0.112793 0.0583,-0.03407 0.11586,-0.07161 0.16993,-0.112793 z m 0.32373,0 c -0.0134,0.04643 -0.0241,0.09312 -0.0337,0.140625 0.01,-0.04762 0.0203,-0.09415 0.0337,-0.140625 z m -0.0337,0.140625 c -0.0128,0.06334 -0.0236,0.127541 -0.0381,0.19043 0.0144,-0.06289 0.0253,-0.126941 0.0381,-0.19043 z m 0.583,-0.101074 c 0.0418,0.02099 0.0821,0.04276 0.12159,0.06738 -0.0395,-0.02452 -0.0799,-0.04663 -0.12159,-0.06738 z m 0.25342,0.162598 c 0.029,0.02427 0.0551,0.05004 0.0806,0.07617 -0.0253,-0.0259 -0.0519,-0.05211 -0.0806,-0.07617 z m 0.0806,0.07617 c 0.0128,0.01306 0.0262,0.026 0.0381,0.03955 -0.0121,-0.01382 -0.0251,-0.02624 -0.0381,-0.03955 z m 0.0718,0.08203 c 0.0219,0.02811 0.042,0.0562 0.0601,0.08643 -0.0179,-0.02992 -0.0385,-0.05857 -0.0601,-0.08643 z m 0.0601,0.08643 c 0.0181,0.03022 0.0342,0.06129 0.0483,0.09375 -0.0141,-0.03249 -0.0303,-0.0635 -0.0483,-0.09375 z m 0.0483,0.09375 c 0.021,0.04828 0.0381,0.100245 0.0498,0.153808 -0.0118,-0.05409 -0.0286,-0.105079 -0.0498,-0.153808 z m 0.0601,0.209472 c 0.006,0.0373 0.009,0.07581 0.0103,0.115723 -0.001,-0.03991 -0.005,-0.07841 -0.0103,-0.115723 z m 0.0103,0.115723 c 0.001,0.03441 -0.001,0.06955 -0.006,0.104004 0.005,-0.03462 0.007,-0.06959 0.006,-0.104004 z" />
</svg>
