<?xml version="1.0" encoding="UTF-8" standalone="no"?>
<svg
   version="1.0"
   width="380.000000pt"
   height="122.000000pt"
   viewBox="0 0 380.000000 122.000000"
   preserveAspectRatio="xMidYMid meet"
   id="svg26"
   sodipodi:docname="logo-fix-group.1.svg"
   inkscape:version="1.3 (0e150ed6c4, 2023-07-21)"
   xmlns:inkscape="http://www.inkscape.org/namespaces/inkscape"
   xmlns:sodipodi="http://sodipodi.sourceforge.net/DTD/sodipodi-0.dtd"
   xmlns="http://www.w3.org/2000/svg"
   xmlns:svg="http://www.w3.org/2000/svg">
  <defs
     id="defs26" />
  <sodipodi:namedview
     id="namedview26"
     pagecolor="#ffffff"
     bordercolor="#000000"
     borderopacity="0.25"
     inkscape:showpageshadow="2"
     inkscape:pageopacity="0.0"
     inkscape:pagecheckerboard="0"
     inkscape:deskcolor="#d1d1d1"
     inkscape:document-units="pt"
     inkscape:zoom="2"
     inkscape:cx="259.25"
     inkscape:cy="130.25"
     inkscape:window-width="1920"
     inkscape:window-height="991"
     inkscape:window-x="-9"
     inkscape:window-y="-9"
     inkscape:window-maximized="1"
     inkscape:current-layer="svg26" />
  <path
     style="fill:#ffffff;fill-opacity:0.96428573;stroke-width:0.75"
     d="m 176.34754,62.030209 0.064,-0.01919"
     id="path29" />
  <g
     transform="matrix(0.1,0,0,-0.1,0.70171813,116.22151)"
     fill="#000000"
     stroke="none"
     id="g26"
     style="fill:#ffffff;fill-opacity:1"
     inkscape:transform-center-x="-2.1876116"
     inkscape:transform-center-y="0.84521358">
    <path
       id="path1"
       style="fill:#ffffff;fill-opacity:1"
       d="m 2354.2822,1070.1611 c -67.9967,0 -79.9941,-2.998 -98.9941,-22.998 -12,-12 -35.0059,-52.00882 -51.0059,-88.00783 -41.9967,-91.9967 -94.0124,-134.99579 -231.0058,-188.99414 l -52.002,-20.00976 -78.999,71.00097 c -43,38.99868 -78.999,78.00131 -78.999,86.00098 0,8.99967 14.0107,40.00587 31.0107,70.00488 54,92.9968 94.9812,86.999 -528.999,78.999 -497.98411,-6 -549.00751,-7.9941 -572.00685,-23.9941 -13.99967,-10 -132.00234,-177.01833 -262.99805,-372.01173 l -236.99707,-354.99024 31.99219,-7.99804 c 43.99868,-11.99967 110.00132,-0.0136 150,25.98632 18.99934,12.99967 70.00165,77.00915 120,152.00684 135.99538,203.9934 111.00429,184.99512 240,184.99512 h 110.00977 l 28.98925,31.01074 c 52.99835,55.99802 39.00156,63.99902 -117.99316,63.99902 -70.99769,0 -125.9974,3.99024 -131.99707,9.99024 -9.99967,9.99967 44.99645,99.00492 113.99414,187.00195 l 21.00586,25.00488 446.99709,4.99512 c 406.9868,4 447.9971,3.00259 461.9971,-11.99707 19.9967,-21.99934 20.0006,-23.99644 -15.9961,-64.99512 -39,-43.99835 -36.0046,-61.00459 31.9921,-142.00195 28,-33.99901 48.0007,-66.9974 44.004,-71.99707 -6,-10.99967 -149.9994,-81.00586 -165.9961,-81.00586 -19,0 -124.9991,-51.99513 -168.9991,-83.99414 -43.9967,-30.99901 -53.014,-34.00586 -136.0107,-36.00586 -150.9967,-5 -138.999,-11.00387 -138.999,72.99316 0,62.99802 4.0078,79.00588 28.0078,115.00489 15,22.99901 26.997,46.00586 26.9971,51.00586 0,11.99934 -27.004,21.99967 -44.004,15 -7.9967,-3 -70.9945,-95.00852 -140.99117,-205.00489 C 884.28976,375.16088 863.28158,337.15592 873.28125,325.15625 c 9.99967,-12.99967 59.00958,-15 296.00095,-15 154.9967,0 293.9981,3.99447 307.9981,8.99414 34.9967,13.99967 83.001,67.01436 131.001,147.01172 35.9967,58.99802 50.0091,72.99578 96.0058,94.99512 80.4634,38.4827 156.9833,78.40963 174.9317,64.42382 0.044,0.01 0.095,10e-4 0.1611,-0.0293 0.067,-0.0312 0.1451,-0.0655 0.2051,-0.10254 0.087,-0.044 0.1736,-0.0712 0.2636,-0.11719 0.096,-0.0537 0.1737,-0.12143 0.2637,-0.19043 0.066,-0.0595 0.1304,-0.12043 0.1904,-0.19043 l 0.015,-0.0147 c 0.016,0.0295 0.016,0.0801 0.044,0.0879 h 0.015 l -0.088,0.13184 0.1318,-0.13184 h 0.015 c 0.034,-0.01 0.06,-0.0323 0.088,-0.0732 l 0.015,-0.0293 0.015,-0.0146 26.7334,-24.75586 c 15.9967,-16.31986 49.9954,-49.9922 76.9921,-80.99121 l 48.9991,-56.00098 -22.002,-60 c -12,-31.99901 -19,-66.99642 -15,-75.99609 9,-22.99934 75.0088,-23.99934 84.0088,0 5,13.99934 8.0039,12.98957 14.0039,-5.00977 8,-20.99934 14.9955,-22.00195 121.9922,-22.00195 h 112.998 l 32.0069,65.00976 c 18,35.99901 31.9922,67.99024 31.9922,69.99024 0,2.99967 -25.9932,5.00976 -57.9932,5.00976 -52.9967,0 -60.0049,-2.00554 -70.0049,-25.00488 -11,-23.99934 -9.9912,-25.00488 24.0088,-25.00488 28,0 34.9922,-2.99252 31.9922,-16.99219 -3,-14.99967 -16.002,-18.00586 -82.002,-21.00586 -43.9967,-2 -82.0009,1.00977 -86.0009,5.00977 -5,3.99967 3.999,32.98927 18.999,62.98828 l 26.001,55.00488 110.0097,3.00293 c 107.9967,3 123.9952,7.99155 124.9952,39.99023 0,9 -28.0024,12.01172 -108.9991,12.01172 -106.9967,0 -109.0091,-1.00099 -141.0058,-30 l -30.9961,-29.0039 6.0058,30 c 9,39.99868 -8.0072,65.001 -89.0039,123.99902 -39.9967,28.99901 -65.999,54.99935 -63.999,63.99902 2,8.99967 46.0062,32.00164 108.0029,56.00098 167.9967,65.99769 198.0033,89.00461 270,206.00098 34,53.99674 57.9903,104.00224 54.9903,108.99894 -3,6 -40.9942,10.0049 -83.9942,10.0049 z M 1877.4316,583.87695 c 0.047,-0.0795 0.1005,-0.1547 0.1465,-0.23437 0.01,-0.009 0.019,-0.0199 0.029,-0.0293 -0.024,0.0492 -0.049,0.0973 -0.073,0.14649 -0.019,0.0392 -0.04,0.0779 -0.059,0.11718 -0.014,0.003 -0.03,-0.003 -0.044,0 z m -0.1171,-13.0957 v -0.0586 c 0.03,-0.0131 0.058,-0.0312 0.088,-0.0439 -0.031,0.0328 -0.057,0.0699 -0.088,0.10254 z m 7.0459,-18.45703 c 0.014,-0.0104 0.03,-0.019 0.044,-0.0293 v 0.0293 c -0.014,10e-4 -0.029,-10e-4 -0.044,0 z m 4.8339,-11.89453 c -0.014,-0.0131 -0.03,-0.0312 -0.044,-0.0439 0.019,0.002 0.039,-0.002 0.059,0 -0.01,0.0143 -0.01,0.0297 -0.015,0.0439 z" />
    <path
       d="m 1156,878 c -32,-45 -10,-82 33,-59 26,14 43,45 35,65 -9,23 -50,19 -68,-6 z"
       id="path2"
       style="fill:#ffffff;fill-opacity:1" />
    <path
       d="m 2428,453 c -22,-49 -46,-100 -54,-115 -13,-26 -13,-28 4,-28 11,0 26,16 40,45 l 22,45 h 85 c 47,0 85,-2 85,-4 0,-2 -7,-20 -15,-39 -19,-46 -19,-47 4,-47 18,0 51,65 51,102 0,9 5,20 10,23 12,7 50,79 50,95 0,6 -44,10 -121,10 h -120 z m 222,29 c 0,-23 -30,-32 -102,-32 -43,0 -78,2 -78,4 0,30 15,36 96,36 46,0 84,-4 84,-8 z"
       id="path3"
       style="fill:#ffffff;fill-opacity:1" />
    <path
       d="m 2758,513 c -34,-37 -88,-146 -88,-178 v -25 h 100 c 94,0 103,2 126,25 32,32 98,170 90,190 -4,12 -25,15 -104,15 -94,0 -99,-1 -124,-27 z m 182,-28 c 0,-3 -14,-32 -30,-65 l -30,-60 h -80 c -93,0 -94,3 -55,80 l 25,50 h 85 c 47,0 85,-2 85,-5 z"
       id="path4"
       style="fill:#ffffff;fill-opacity:1" />
    <path
       d="m 2996,441 c -29,-58 -46,-105 -43,-115 5,-13 23,-16 105,-16 94,0 99,1 124,28 22,23 108,180 108,197 0,3 -8,5 -17,5 -12,0 -32,-28 -63,-88 l -45,-87 -74,-3 c -41,-2 -78,1 -83,6 -4,4 10,45 32,90 33,70 37,82 22,82 -13,0 -32,-30 -66,-99 z"
       id="path5"
       style="fill:#ffffff;fill-opacity:1" />
    <path
       d="m 3275,430 c -30,-60 -55,-112 -55,-115 0,-3 8,-5 18,-5 11,0 26,16 40,45 l 22,45 h 100 c 88,0 102,2 121,21 24,24 60,99 53,111 -3,4 -59,8 -125,8 h -119 z m 245,52 c 0,-23 -30,-32 -107,-32 -46,0 -83,2 -83,4 0,31 15,36 101,36 49,0 89,-4 89,-8 z"
       id="path6"
       style="fill:#ffffff;fill-opacity:1" />
    <path
       d="m 210,175 c 0,-8 5,-15 10,-15 6,0 10,-25 10,-55 0,-42 3,-55 15,-55 12,0 15,13 15,55 0,30 5,55 10,55 6,0 10,7 10,15 0,10 -11,15 -35,15 -24,0 -35,-5 -35,-15 z"
       id="path7"
       style="fill:#ffffff;fill-opacity:1" />
    <path
       d="m 534,176 c -3,-7 -4,-37 -2,-66 4,-63 25,-80 30,-23 4,52 32,53 36,1 5,-56 24,-46 20,10 -3,43 -5,47 -30,50 -20,2 -28,9 -28,23 0,22 -18,26 -26,5 z"
       id="path8"
       style="fill:#ffffff;fill-opacity:1" />
    <path
       d="m 872,123 c 2,-42 8,-68 16,-71 9,-3 12,15 12,67 0,57 -3,71 -15,71 -13,0 -15,-12 -13,-67 z"
       id="path9"
       style="fill:#ffffff;fill-opacity:1" />
    <path
       d="m 1332,178 c -18,-18 -15,-29 14,-59 27,-28 25,-61 -2,-38 -17,14 -29,6 -21,-16 7,-18 48,-20 65,-3 18,18 14,36 -13,60 -28,24 -33,43 -10,35 19,-8 31,13 14,24 -19,12 -33,11 -47,-3 z"
       id="path10"
       style="fill:#ffffff;fill-opacity:1" />
    <path
       d="m 1534,176 c -10,-25 1,-119 14,-124 9,-3 12,15 12,67 0,66 -12,93 -26,57 z"
       id="path11"
       style="fill:#ffffff;fill-opacity:1" />
    <path
       d="m 1700,171 c 0,-11 -6,-22 -12,-25 -10,-5 -10,-7 0,-12 6,-3 12,-23 12,-45 0,-21 5,-39 10,-39 6,0 10,18 10,39 0,22 6,42 13,45 10,5 10,7 0,12 -7,3 -13,14 -13,25 0,10 -4,19 -10,19 -5,0 -10,-9 -10,-19 z"
       id="path12"
       style="fill:#ffffff;fill-opacity:1" />
    <path
       d="m 1747,184 c -8,-8 1,-24 14,-24 5,0 9,7 9,15 0,15 -12,20 -23,9 z"
       id="path13"
       style="fill:#ffffff;fill-opacity:1" />
    <path
       d="m 300,131 c -15,-29 -12,-46 9,-65 21,-19 62,-18 69,2 3,9 -3,11 -21,7 -14,-4 -28,-2 -31,4 -5,7 5,11 28,11 42,0 50,10 30,38 -20,28 -69,30 -84,3 z m 65,-11 c 4,-6 -5,-10 -19,-10 -14,0 -26,5 -26,10 0,6 9,10 19,10 11,0 23,-4 26,-10 z"
       id="path14"
       style="fill:#ffffff;fill-opacity:1" />
    <path
       d="m 418,125 c -20,-44 17,-83 67,-71 32,8 24,21 -13,21 -22,0 -27,5 -27,25 0,20 5,25 25,26 40,0 38,19 -2,22 -33,3 -40,0 -50,-23 z"
       id="path15"
       style="fill:#ffffff;fill-opacity:1" />
    <path
       d="m 650,101 c 0,-59 17,-69 22,-13 2,25 8,37 18,37 10,0 16,-12 18,-37 5,-56 24,-46 20,10 -3,47 -3,47 -40,50 l -38,3 z"
       id="path16"
       style="fill:#ffffff;fill-opacity:1" />
    <path
       d="m 766,134 c -20,-19 -20,-34 0,-62 21,-30 59,-29 80,3 15,23 15,27 0,50 -19,29 -56,33 -80,9 z m 62,-30 c 3,-22 -21,-39 -39,-28 -11,6 -12,38 -2,48 13,13 38,1 41,-20 z"
       id="path17"
       style="fill:#ffffff;fill-opacity:1" />
    <path
       d="m 931,136 c -21,-26 -10,-69 22,-80 23,-8 31,-6 49,12 18,18 20,26 12,49 -7,21 -17,29 -40,31 -18,2 -36,-3 -43,-12 z m 57,-30 c 2,-10 -1,-23 -7,-29 -15,-15 -46,16 -37,38 8,21 40,15 44,-9 z"
       id="path18"
       style="fill:#ffffff;fill-opacity:1" />
    <path
       d="m 1053,143 c -7,-2 -13,-20 -13,-38 0,-36 28,-62 56,-51 8,3 14,0 14,-6 0,-7 -13,-9 -35,-5 -38,6 -47,-6 -16,-23 28,-14 38,-13 61,10 15,15 20,33 20,70 v 50 l -37,-1 c -21,0 -44,-3 -50,-6 z m 55,-41 c 3,-16 -2,-22 -17,-22 -24,0 -35,15 -27,36 9,23 40,13 44,-14 z"
       id="path19"
       style="fill:#ffffff;fill-opacity:1" />
    <path
       d="m 1170,104 c 15,-34 17,-50 10,-65 -8,-15 -7,-19 3,-19 11,0 67,105 67,126 0,14 -22,0 -34,-23 l -14,-28 -13,28 c -7,15 -18,27 -25,27 -10,0 -8,-11 6,-46 z"
       id="path20"
       style="fill:#ffffff;fill-opacity:1" />
    <path
       d="m 1424,125 c -15,-23 -15,-27 0,-50 21,-32 59,-33 80,-3 20,28 20,43 0,62 -24,24 -61,20 -80,-9 z m 64,-19 c 4,-21 -14,-37 -35,-29 -14,5 -18,35 -6,47 12,12 38,1 41,-18 z"
       id="path21"
       style="fill:#ffffff;fill-opacity:1" />
    <path
       d="m 1580,119 c 0,-42 17,-69 43,-69 33,0 47,19 47,62 0,52 -28,53 -32,1 -2,-21 -7,-38 -13,-38 -5,0 -11,17 -13,38 -4,47 -32,53 -32,6 z"
       id="path22"
       style="fill:#ffffff;fill-opacity:1" />
    <path
       d="m 1750,100 c 0,-27 5,-50 10,-50 6,0 10,23 10,50 0,28 -4,50 -10,50 -5,0 -10,-22 -10,-50 z"
       id="path23"
       style="fill:#ffffff;fill-opacity:1" />
    <path
       d="m 1802,138 c -27,-27 -3,-88 34,-88 31,0 54,21 54,48 0,35 -16,52 -50,52 -14,0 -31,-5 -38,-12 z m 62,-25 c 4,-9 0,-23 -9,-32 -13,-14 -17,-14 -32,1 -13,14 -14,20 -3,32 16,21 36,20 44,-1 z"
       id="path24"
       style="fill:#ffffff;fill-opacity:1" />
    <path
       d="m 1910,101 c 0,-39 4,-51 15,-51 10,0 15,10 15,34 0,38 17,57 31,35 5,-8 9,-26 9,-41 0,-16 5,-28 11,-28 6,0 9,19 7,48 l -3,47 -42,3 -43,3 z"
       id="path25"
       style="fill:#ffffff;fill-opacity:1" />
    <path
       d="m 2023,133 c -4,-10 2,-23 15,-34 28,-22 28,-32 1,-24 -15,5 -20,3 -17,-6 7,-21 43,-22 59,-3 12,14 10,19 -14,40 -26,22 -26,24 -8,24 12,0 21,5 21,10 0,17 -50,11 -57,-7 z"
       id="path26"
       style="fill:#ffffff;fill-opacity:1" />
  </g>
</svg>
