<?xml version="1.0" encoding="UTF-8" standalone="no"?>
<svg
   version="1.0"
   width="380.000000pt"
   height="122.000000pt"
   viewBox="0 0 380.000000 122.000000"
   preserveAspectRatio="xMidYMid meet"
   id="svg26"
   sodipodi:docname="logo-fix-group-380x122.svg"
   inkscape:version="1.3 (0e150ed6c4, 2023-07-21)"
   xmlns:inkscape="http://www.inkscape.org/namespaces/inkscape"
   xmlns:sodipodi="http://sodipodi.sourceforge.net/DTD/sodipodi-0.dtd"
   xmlns="http://www.w3.org/2000/svg"
   xmlns:svg="http://www.w3.org/2000/svg">
  <defs
     id="defs26" />
  <sodipodi:namedview
     id="namedview26"
     pagecolor="#ffffff"
     bordercolor="#000000"
     borderopacity="0.25"
     inkscape:showpageshadow="2"
     inkscape:pageopacity="0.0"
     inkscape:pagecheckerboard="0"
     inkscape:deskcolor="#d1d1d1"
     inkscape:document-units="pt"
     inkscape:zoom="2.8284271"
     inkscape:cx="190.3885"
     inkscape:cy="33.234019"
     inkscape:window-width="1920"
     inkscape:window-height="991"
     inkscape:window-x="-9"
     inkscape:window-y="-9"
     inkscape:window-maximized="1"
     inkscape:current-layer="svg26" />
  <g
     transform="matrix(0.1,0,0,-0.1,0,122)"
     fill="#000000"
     stroke="none"
     id="g26"
     style="fill:#000000;fill-opacity:1"
     inkscape:transform-center-x="-2.1876116"
     inkscape:transform-center-y="0.84521358">
    <path
       id="path1"
       style="fill:#000000;fill-opacity:1"
       d="m 2354.2822,1070.1611 c -67.9967,0 -79.9941,-2.998 -98.9941,-22.998 -12,-12 -35.0059,-52.00882 -51.0059,-88.00783 -41.9967,-91.9967 -94.0124,-134.99579 -231.0058,-188.99414 l -52.002,-20.00976 -78.999,71.00097 c -43,38.99868 -78.999,78.00131 -78.999,86.00098 0,8.99967 14.0107,40.00587 31.0107,70.00488 54,92.9968 94.9812,86.999 -528.999,78.999 -497.98411,-6 -549.00751,-7.9941 -572.00685,-23.9941 -13.99967,-10 -132.00234,-177.01833 -262.99805,-372.01173 l -236.99707,-354.99024 31.99219,-7.99804 c 43.99868,-11.99967 110.00132,-0.0136 150,25.98632 18.99934,12.99967 70.00165,77.00915 120,152.00684 135.99538,203.9934 111.00429,184.99512 240,184.99512 h 110.00977 l 28.98925,31.01074 c 52.99835,55.99802 39.00156,63.99902 -117.99316,63.99902 -70.99769,0 -125.9974,3.99024 -131.99707,9.99024 -9.99967,9.99967 44.99645,99.00492 113.99414,187.00195 l 21.00586,25.00488 446.99709,4.99512 c 406.9868,4 447.9971,3.00259 461.9971,-11.99707 19.9967,-21.99934 20.0006,-23.99644 -15.9961,-64.99512 -39,-43.99835 -36.0046,-61.00459 31.9921,-142.00195 28,-33.99901 48.0007,-66.9974 44.004,-71.99707 -6,-10.99967 -149.9994,-81.00586 -165.9961,-81.00586 -19,0 -124.9991,-51.99513 -168.9991,-83.99414 -43.9967,-30.99901 -53.014,-34.00586 -136.0107,-36.00586 -150.9967,-5 -138.999,-11.00387 -138.999,72.99316 0,62.99802 4.0078,79.00588 28.0078,115.00489 15,22.99901 26.997,46.00586 26.9971,51.00586 0,11.99934 -27.004,21.99967 -44.004,15 -7.9967,-3 -70.9945,-95.00852 -140.99117,-205.00489 C 884.28976,375.16088 863.28158,337.15592 873.28125,325.15625 c 9.99967,-12.99967 59.00958,-15 296.00095,-15 154.9967,0 293.9981,3.99447 307.9981,8.99414 34.9967,13.99967 83.001,67.01436 131.001,147.01172 35.9967,58.99802 50.0091,72.99578 96.0058,94.99512 80.4634,38.4827 156.9833,78.40963 174.9317,64.42382 0.044,0.01 0.095,0.001 0.1611,-0.0293 0.067,-0.0312 0.1451,-0.0655 0.2051,-0.10254 0.087,-0.044 0.1736,-0.0712 0.2636,-0.11719 0.096,-0.0537 0.1737,-0.12143 0.2637,-0.19043 0.066,-0.0595 0.1304,-0.12043 0.1904,-0.19043 l 0.015,-0.0147 c 0.016,0.0295 0.016,0.0801 0.044,0.0879 h 0.015 l -0.088,0.13184 0.1318,-0.13184 h 0.015 c 0.034,-0.01 0.06,-0.0323 0.088,-0.0732 l 0.015,-0.0293 0.015,-0.0146 26.7334,-24.75586 c 15.9967,-16.31986 49.9954,-49.9922 76.9921,-80.99121 l 48.9991,-56.00098 -22.002,-60 c -12,-31.99901 -19,-66.99642 -15,-75.99609 9,-22.99934 75.0088,-23.99934 84.0088,0 5,13.99934 8.0039,12.98957 14.0039,-5.00977 8,-20.99934 14.9955,-22.00195 121.9922,-22.00195 h 112.998 l 32.0069,65.00976 c 18,35.99901 31.9922,67.99024 31.9922,69.99024 0,2.99967 -25.9932,5.00976 -57.9932,5.00976 -52.9967,0 -60.0049,-2.00554 -70.0049,-25.00488 -11,-23.99934 -9.9912,-25.00488 24.0088,-25.00488 28,0 34.9922,-2.99252 31.9922,-16.99219 -3,-14.99967 -16.002,-18.00586 -82.002,-21.00586 -43.9967,-2 -82.0009,1.00977 -86.0009,5.00977 -5,3.99967 3.999,32.98927 18.999,62.98828 l 26.001,55.00488 110.0097,3.00293 c 107.9967,3 123.9952,7.99155 124.9952,39.99023 0,9 -28.0024,12.01172 -108.9991,12.01172 -106.9967,0 -109.0091,-1.00099 -141.0058,-30 l -30.9961,-29.0039 6.0058,30 c 9,39.99868 -8.0072,65.001 -89.0039,123.99902 -39.9967,28.99901 -65.999,54.99935 -63.999,63.99902 2,8.99967 46.0062,32.00164 108.0029,56.00098 167.9967,65.99769 198.0033,89.00461 270,206.00098 34,53.99677 57.9903,104.00227 54.9903,108.99897 -3,6 -40.9942,10.0049 -83.9942,10.0049 z M 1877.4316,583.87695 c 0.047,-0.0795 0.1005,-0.1547 0.1465,-0.23437 0.01,-0.009 0.019,-0.0199 0.029,-0.0293 -0.024,0.0492 -0.049,0.0973 -0.073,0.14649 -0.019,0.0392 -0.04,0.0779 -0.059,0.11718 -0.014,0.003 -0.03,-0.003 -0.044,0 z m -0.1171,-13.0957 v -0.0586 c 0.03,-0.0131 0.058,-0.0312 0.088,-0.0439 -0.031,0.0328 -0.057,0.0699 -0.088,0.10254 z m 7.0459,-18.45703 c 0.014,-0.0104 0.03,-0.019 0.044,-0.0293 v 0.0293 c -0.014,10e-4 -0.029,-10e-4 -0.044,0 z m 4.8339,-11.89453 c -0.014,-0.0131 -0.03,-0.0312 -0.044,-0.0439 0.019,0.002 0.039,-0.002 0.059,0 -0.01,0.0143 -0.01,0.0297 -0.015,0.0439 z" />
    <path
       d="m 1156,878 c -32,-45 -10,-82 33,-59 26,14 43,45 35,65 -9,23 -50,19 -68,-6 z"
       id="path2"
       style="fill:#000000;fill-opacity:1" />
    <path
       d="m 2428,453 c -22,-49 -46,-100 -54,-115 -13,-26 -13,-28 4,-28 11,0 26,16 40,45 l 22,45 h 85 c 47,0 85,-2 85,-4 0,-2 -7,-20 -15,-39 -19,-46 -19,-47 4,-47 18,0 51,65 51,102 0,9 5,20 10,23 12,7 50,79 50,95 0,6 -44,10 -121,10 h -120 z m 222,29 c 0,-23 -30,-32 -102,-32 -43,0 -78,2 -78,4 0,30 15,36 96,36 46,0 84,-4 84,-8 z"
       id="path3"
       style="fill:#000000;fill-opacity:1" />
    <path
       d="m 2758,513 c -34,-37 -88,-146 -88,-178 v -25 h 100 c 94,0 103,2 126,25 32,32 98,170 90,190 -4,12 -25,15 -104,15 -94,0 -99,-1 -124,-27 z m 182,-28 c 0,-3 -14,-32 -30,-65 l -30,-60 h -80 c -93,0 -94,3 -55,80 l 25,50 h 85 c 47,0 85,-2 85,-5 z"
       id="path4"
       style="fill:#000000;fill-opacity:1" />
    <path
       d="m 2996,441 c -29,-58 -46,-105 -43,-115 5,-13 23,-16 105,-16 94,0 99,1 124,28 22,23 108,180 108,197 0,3 -8,5 -17,5 -12,0 -32,-28 -63,-88 l -45,-87 -74,-3 c -41,-2 -78,1 -83,6 -4,4 10,45 32,90 33,70 37,82 22,82 -13,0 -32,-30 -66,-99 z"
       id="path5"
       style="fill:#000000;fill-opacity:1" />
    <path
       d="m 3275,430 c -30,-60 -55,-112 -55,-115 0,-3 8,-5 18,-5 11,0 26,16 40,45 l 22,45 h 100 c 88,0 102,2 121,21 24,24 60,99 53,111 -3,4 -59,8 -125,8 h -119 z m 245,52 c 0,-23 -30,-32 -107,-32 -46,0 -83,2 -83,4 0,31 15,36 101,36 49,0 89,-4 89,-8 z"
       id="path6"
       style="fill:#000000;fill-opacity:1" />
    <path
       d="m 210,175 c 0,-8 5,-15 10,-15 6,0 10,-25 10,-55 0,-42 3,-55 15,-55 12,0 15,13 15,55 0,30 5,55 10,55 6,0 10,7 10,15 0,10 -11,15 -35,15 -24,0 -35,-5 -35,-15 z"
       id="path7"
       style="fill:#000000;fill-opacity:1" />
    <path
       d="m 534,176 c -3,-7 -4,-37 -2,-66 4,-63 25,-80 30,-23 4,52 32,53 36,1 5,-56 24,-46 20,10 -3,43 -5,47 -30,50 -20,2 -28,9 -28,23 0,22 -18,26 -26,5 z"
       id="path8"
       style="fill:#000000;fill-opacity:1" />
    <path
       d="m 872,123 c 2,-42 8,-68 16,-71 9,-3 12,15 12,67 0,57 -3,71 -15,71 -13,0 -15,-12 -13,-67 z"
       id="path9"
       style="fill:#000000;fill-opacity:1" />
    <path
       d="m 1332,178 c -18,-18 -15,-29 14,-59 27,-28 25,-61 -2,-38 -17,14 -29,6 -21,-16 7,-18 48,-20 65,-3 18,18 14,36 -13,60 -28,24 -33,43 -10,35 19,-8 31,13 14,24 -19,12 -33,11 -47,-3 z"
       id="path10"
       style="fill:#000000;fill-opacity:1" />
    <path
       d="m 1534,176 c -10,-25 1,-119 14,-124 9,-3 12,15 12,67 0,66 -12,93 -26,57 z"
       id="path11"
       style="fill:#000000;fill-opacity:1" />
    <path
       d="m 1700,171 c 0,-11 -6,-22 -12,-25 -10,-5 -10,-7 0,-12 6,-3 12,-23 12,-45 0,-21 5,-39 10,-39 6,0 10,18 10,39 0,22 6,42 13,45 10,5 10,7 0,12 -7,3 -13,14 -13,25 0,10 -4,19 -10,19 -5,0 -10,-9 -10,-19 z"
       id="path12"
       style="fill:#000000;fill-opacity:1" />
    <path
       d="m 1747,184 c -8,-8 1,-24 14,-24 5,0 9,7 9,15 0,15 -12,20 -23,9 z"
       id="path13"
       style="fill:#000000;fill-opacity:1" />
    <path
       d="m 300,131 c -15,-29 -12,-46 9,-65 21,-19 62,-18 69,2 3,9 -3,11 -21,7 -14,-4 -28,-2 -31,4 -5,7 5,11 28,11 42,0 50,10 30,38 -20,28 -69,30 -84,3 z m 65,-11 c 4,-6 -5,-10 -19,-10 -14,0 -26,5 -26,10 0,6 9,10 19,10 11,0 23,-4 26,-10 z"
       id="path14"
       style="fill:#000000;fill-opacity:1" />
    <path
       d="m 418,125 c -20,-44 17,-83 67,-71 32,8 24,21 -13,21 -22,0 -27,5 -27,25 0,20 5,25 25,26 40,0 38,19 -2,22 -33,3 -40,0 -50,-23 z"
       id="path15"
       style="fill:#000000;fill-opacity:1" />
    <path
       d="m 650,101 c 0,-59 17,-69 22,-13 2,25 8,37 18,37 10,0 16,-12 18,-37 5,-56 24,-46 20,10 -3,47 -3,47 -40,50 l -38,3 z"
       id="path16"
       style="fill:#000000;fill-opacity:1" />
    <path
       d="m 766,134 c -20,-19 -20,-34 0,-62 21,-30 59,-29 80,3 15,23 15,27 0,50 -19,29 -56,33 -80,9 z m 62,-30 c 3,-22 -21,-39 -39,-28 -11,6 -12,38 -2,48 13,13 38,1 41,-20 z"
       id="path17"
       style="fill:#000000;fill-opacity:1" />
    <path
       d="m 931,136 c -21,-26 -10,-69 22,-80 23,-8 31,-6 49,12 18,18 20,26 12,49 -7,21 -17,29 -40,31 -18,2 -36,-3 -43,-12 z m 57,-30 c 2,-10 -1,-23 -7,-29 -15,-15 -46,16 -37,38 8,21 40,15 44,-9 z"
       id="path18"
       style="fill:#000000;fill-opacity:1" />
    <path
       d="m 1053,143 c -7,-2 -13,-20 -13,-38 0,-36 28,-62 56,-51 8,3 14,0 14,-6 0,-7 -13,-9 -35,-5 -38,6 -47,-6 -16,-23 28,-14 38,-13 61,10 15,15 20,33 20,70 v 50 l -37,-1 c -21,0 -44,-3 -50,-6 z m 55,-41 c 3,-16 -2,-22 -17,-22 -24,0 -35,15 -27,36 9,23 40,13 44,-14 z"
       id="path19"
       style="fill:#000000;fill-opacity:1" />
    <path
       d="m 1170,104 c 15,-34 17,-50 10,-65 -8,-15 -7,-19 3,-19 11,0 67,105 67,126 0,14 -22,0 -34,-23 l -14,-28 -13,28 c -7,15 -18,27 -25,27 -10,0 -8,-11 6,-46 z"
       id="path20"
       style="fill:#000000;fill-opacity:1" />
    <path
       d="m 1424,125 c -15,-23 -15,-27 0,-50 21,-32 59,-33 80,-3 20,28 20,43 0,62 -24,24 -61,20 -80,-9 z m 64,-19 c 4,-21 -14,-37 -35,-29 -14,5 -18,35 -6,47 12,12 38,1 41,-18 z"
       id="path21"
       style="fill:#000000;fill-opacity:1" />
    <path
       d="m 1580,119 c 0,-42 17,-69 43,-69 33,0 47,19 47,62 0,52 -28,53 -32,1 -2,-21 -7,-38 -13,-38 -5,0 -11,17 -13,38 -4,47 -32,53 -32,6 z"
       id="path22"
       style="fill:#000000;fill-opacity:1" />
    <path
       d="m 1750,100 c 0,-27 5,-50 10,-50 6,0 10,23 10,50 0,28 -4,50 -10,50 -5,0 -10,-22 -10,-50 z"
       id="path23"
       style="fill:#000000;fill-opacity:1" />
    <path
       d="m 1802,138 c -27,-27 -3,-88 34,-88 31,0 54,21 54,48 0,35 -16,52 -50,52 -14,0 -31,-5 -38,-12 z m 62,-25 c 4,-9 0,-23 -9,-32 -13,-14 -17,-14 -32,1 -13,14 -14,20 -3,32 16,21 36,20 44,-1 z"
       id="path24"
       style="fill:#000000;fill-opacity:1" />
    <path
       d="m 1910,101 c 0,-39 4,-51 15,-51 10,0 15,10 15,34 0,38 17,57 31,35 5,-8 9,-26 9,-41 0,-16 5,-28 11,-28 6,0 9,19 7,48 l -3,47 -42,3 -43,3 z"
       id="path25"
       style="fill:#000000;fill-opacity:1" />
    <path
       d="m 2023,133 c -4,-10 2,-23 15,-34 28,-22 28,-32 1,-24 -15,5 -20,3 -17,-6 7,-21 43,-22 59,-3 12,14 10,19 -14,40 -26,22 -26,24 -8,24 12,0 21,5 21,10 0,17 -50,11 -57,-7 z"
       id="path26"
       style="fill:#000000;fill-opacity:1" />
  </g>
  <path
     id="path27"
     style="fill:#ffffff;fill-opacity:0;stroke-width:0.75"
     d="M 187.76367,58.529297 176.354,62.008301 h 0.10254 l 2.35254,6.65039 2.27637,-0.930175 c -0.0204,-0.06142 -0.0364,-0.127614 -0.0293,-0.19043 -0.005,-0.0016 -0.009,-0.0042 -0.0132,-0.0059 -0.005,0.0032 -0.0102,0.0056 -0.0146,0.0088 -0.005,0.0035 0.004,-0.0056 0.0132,-0.01025 -0.111,-0.04171 -0.1331,-0.114913 -0.0981,-0.203614 -0.0317,-0.01781 -0.0612,-0.0361 -0.0835,-0.06445 -0.0205,-0.02613 0.0378,-0.05576 0.0615,-0.0791 0.0505,-0.04972 0.10586,-0.09308 0.15966,-0.13916 0.24046,-0.205952 0.48689,-0.405496 0.73389,-0.603516 0.16487,-0.148806 0.33129,-0.29553 0.51123,-0.42627 0.0654,-0.04814 0.13081,-0.0969 0.19629,-0.145019 0.13651,-0.118832 0.27353,-0.237169 0.41016,-0.355957 0.002,-0.15531 0.009,-0.315571 0.0176,-0.446777 0.0175,-0.264266 0.047,-0.526805 0.0791,-0.789551 -0.003,-0.0231 -0.007,-0.04984 -0.009,-0.06885 -0.009,-0.128065 -5e-5,-0.200561 0.009,-0.32666 0.002,-0.01292 0.004,-0.02176 0.006,-0.03369 -0.0251,-0.02254 -0.0449,-0.04147 -0.0879,-0.0791 -0.0126,-0.01834 -0.0296,-0.04302 -0.0483,-0.06885 -0.03,0.0014 -0.0598,2.92e-4 -0.0894,-0.0044 -0.0422,0.06196 -0.0831,0.125472 -0.13916,0.174316 -0.20953,0.182575 -0.53631,0.326263 -0.79834,0.394043 -0.28185,0.07291 -0.69273,0.124281 -0.98144,0.0249 -0.12262,-0.0422 -0.214,-0.146187 -0.32081,-0.219727 -0.0236,-0.112645 -0.0892,-0.224604 -0.0718,-0.338379 0.0477,-0.312035 0.34617,-0.582977 0.57861,-0.74707 0.3399,-0.239943 0.76789,-0.413312 1.17188,-0.502442 0.1976,-0.0436 0.40249,-0.0469 0.60351,-0.07031 0.29529,0.04779 0.54613,0.02933 0.76611,0.240234 0.0639,0.0036 0.12632,0.0099 0.1875,0.02197 0.0465,-0.03612 0.0958,-0.06751 0.14795,-0.08936 0.004,-0.02441 0.007,-0.04946 0.0146,-0.07324 0.0297,-0.09541 0.0767,-0.185746 0.12891,-0.270996 0.11056,-0.180738 0.23383,-0.303375 0.43213,-0.373535 0.0222,-0.0079 0.0457,-0.0097 0.0688,-0.01465 0.007,-0.0015 0.0128,-0.0024 0.019,-0.0029 0.0929,-0.0077 0.0858,0.09123 -0.019,0.120117 -0.0141,0.0039 -0.029,0.0062 -0.0425,0.01172 -0.17334,0.07015 -0.26754,0.166032 -0.36474,0.331054 -0.0434,0.07356 -0.0818,0.150404 -0.1084,0.231446 0.0833,-0.02078 0.1694,-0.03233 0.25488,-0.03662 0.0187,-0.03014 0.037,-0.05999 0.0542,-0.09082 0.0885,-0.09638 0.1691,-0.201324 0.2666,-0.288574 0.17976,-0.160879 0.38756,-0.28304 0.60938,-0.375 0.13599,-0.05638 0.26766,-0.09111 0.41308,-0.09961 0.0287,-0.0016 0.0577,0.0049 0.0864,0.0073 0.11564,0.0096 0.088,0.121258 -0.0278,0.114258 -0.022,-0.0014 -0.0454,-0.0062 -0.0674,-0.0044 -0.12927,0.01064 -0.24843,0.04281 -0.36915,0.09375 -0.16878,0.07123 -0.32755,0.159595 -0.47168,0.270996 0.0318,0.0043 0.0587,0.05032 0.041,0.117188 -0.007,0.02631 -0.0155,0.0523 -0.0205,0.0791 -0.0135,0.07665 -0.0196,0.153439 -0.022,0.229981 0.003,4.52e-4 0.007,0.001 0.0103,0.0015 0.0302,0.01805 0.0554,0.03123 0.0835,0.04687 0.036,-0.01826 0.0722,-0.037 0.10693,-0.05713 0.10449,-0.0049 0.21368,-0.04605 0.31348,-0.01465 0.0762,0.02398 0.13319,0.09682 0.17139,0.166993 0.0779,0.143244 0.0478,0.340818 -0.0293,0.474609 -0.0103,0.01788 -0.0216,0.03438 -0.0337,0.05127 0.0111,0.08717 0.005,0.175969 -0.0176,0.260743 0.002,-0.0013 0.005,-0.0031 0.007,-0.0044 0.006,-0.0034 0.0128,-0.0058 0.019,-0.0088 0.10952,-0.125823 0.21743,-0.253529 0.32519,-0.380859 -0.019,-0.0411 -0.0338,-0.08315 -0.0308,-0.127442 0.0105,-0.145012 0.0608,-0.177711 0.12158,-0.161133 -0.0106,-0.03138 -0.0186,-0.0608 -0.0205,-0.08057 -0.005,-0.05144 -0.009,-0.136924 0.041,-0.149414 0.0217,-0.0054 0.0416,-0.0057 0.0615,-0.0073 -0.0932,-0.183597 -0.18655,-0.367339 -0.28271,-0.549317 l 0.001,-0.0015 c -0.1084,-0.205135 0.0951,-0.319348 0.20362,-0.114258 0.0907,0.171474 0.17688,0.345161 0.26367,0.518554 0.0232,0.0084 0.0423,0.03643 0.0425,0.0835 v 0.0015 c 0.0118,0.02364 0.0248,0.04667 0.0366,0.07031 0.13691,-0.160741 0.27498,-0.320332 0.41602,-0.477539 0.16282,-0.166205 0.31957,-0.347899 0.52441,-0.464356 0.0436,-0.0248 0.0793,-0.04215 0.11426,-0.05713 0.0197,-0.01757 0.0425,-0.02971 0.0747,-0.0293 0.0274,-0.01022 0.0521,-0.01935 0.0864,-0.03223 0.0511,-0.01619 0.10323,-0.03068 0.15527,-0.04395 0.0262,-0.03142 0.052,-0.06312 0.0791,-0.09375 0.0186,-0.02098 0.0351,-0.04418 0.0571,-0.06152 0.0154,-0.01206 0.034,-0.03647 0.0513,-0.04101 0.002,-4.01e-4 0.002,1.05e-4 0.003,0 -0.0681,-0.136971 -0.15094,-0.321821 0.17872,-0.262207 0.0326,-0.02124 0.0755,-0.03091 0.1289,-0.02783 -0.0117,-0.04881 -5.8e-4,-0.08909 0.0234,-0.114258 -0.0506,-0.08759 -0.12291,-0.210425 -0.14063,-0.246094 -0.0186,-0.0375 -0.0322,-0.07705 -0.0483,-0.115723 0.013,-0.04771 -0.007,-0.12623 0.0396,-0.14209 0.0799,-0.02709 0.14407,-0.01338 0.19921,0.01904 0.009,-0.03727 0.0247,-0.05327 0.0527,-0.09229 0.0222,-0.0072 0.0437,-0.01797 0.0659,-0.02637 -0.0477,-0.09873 -0.0968,-0.196815 -0.14063,-0.297363 -0.003,-0.0065 -5.1e-4,-0.01143 -0.003,-0.01758 -0.0901,-0.10817 -0.0516,-0.219045 0.041,-0.216797 0.034,8.24e-4 0.0753,0.01743 0.12011,0.0542 0.0759,0.06222 0.14228,0.133868 0.20948,0.205078 0.0753,0.08901 0.14008,0.186115 0.20508,0.282715 0.0604,0.08417 0.11499,0.171682 0.16259,0.263672 0.0653,0.123442 0.12757,0.248934 0.18457,0.376465 0.0231,0.05123 0.0448,0.102435 0.0674,0.153808 0.03,0.0087 0.0627,0.03021 0.0967,0.06738 0.1257,0.137665 0.21774,0.30036 0.31494,0.458496 0.0699,0.117321 0.13806,0.234969 0.18896,0.361817 0.0247,0.059 0.0405,0.12244 0.0645,0.18164 0.0507,0.125207 -0.004,0.202911 -0.0747,0.206543 0.0234,0.0545 0.0448,0.113188 0.0469,0.146485 1.9e-4,0.0029 2e-5,0.0059 0,0.0088 0.0235,0.05391 0.0474,0.107897 0.0688,0.162597 0.0342,0.09707 0.0751,0.19141 0.11279,0.28711 0.0171,0.04461 0.0338,0.08976 0.0498,0.134765 0.0264,0.07414 0.0161,0.129998 -0.0103,0.165528 v 0.0015 c -0.007,0.04351 -0.0317,0.07333 -0.0659,0.0835 0.10344,0.214979 0.20323,0.431685 0.30175,0.648925 l 1.46778,-0.600586 z m -6.72217,9.001465 0.001,0.0015 c 0.001,-7.59e-4 0.002,-0.0022 0.003,-0.0029 -10e-4,2.7e-4 -0.003,4.02e-4 -0.004,0.0015 z m 7.10596,-7.105957 c 0.006,0.01503 0.0119,0.03025 0.0176,0.04541 -9.3e-4,-0.0086 -0.001,-0.01758 -0.001,-0.02637 v -0.0015 c -0.004,-0.0058 -0.01,-0.01107 -0.0161,-0.01758 z m -3.36621,1.749023 c -0.0185,0.01535 -0.0363,0.03067 -0.0542,0.04687 -0.0913,0.08253 -0.16632,0.182736 -0.24902,0.273926 -0.003,0.0048 -0.005,0.0085 -0.007,0.01318 0.0808,0.0061 0.16119,0.02137 0.2417,0.03516 0.003,-0.08208 0.01,-0.164016 0.0264,-0.244629 0.008,-0.03646 0.0212,-0.07137 0.0322,-0.106934 0.002,-0.0081 0.007,-0.01131 0.0103,-0.01758 z m -1.94678,0.353027 c -0.19046,0.02359 -0.38415,0.02782 -0.57129,0.07031 -0.39159,0.0889 -0.80173,0.255006 -1.13086,0.489258 -0.21313,0.151694 -0.49074,0.401351 -0.52734,0.692871 -0.0112,0.08998 0.0515,0.173872 0.0776,0.260742 0.0897,0.0499 0.17033,0.124359 0.26953,0.150879 0.27739,0.07418 0.63291,0.02881 0.90088,-0.04248 0.24819,-0.06602 0.55665,-0.201546 0.75439,-0.376465 0.0349,-0.03084 0.0623,-0.06907 0.0879,-0.108399 -0.14434,-0.06209 -0.23725,-0.188654 -0.20215,-0.366211 0.0209,-0.105441 0.0842,-0.203385 0.15674,-0.282715 0.0904,-0.09889 0.20259,-0.179964 0.32227,-0.240234 0.13243,-0.0667 0.282,-0.08991 0.42334,-0.134766 0.004,3.15e-4 0.008,-2.91e-4 0.0117,0 -0.17307,-0.08882 -0.36158,-0.08264 -0.57276,-0.112793 z m 1.57178,0.09375 c -0.0836,0.143717 -0.1503,0.265595 -0.14795,0.459961 2.1e-4,0.01566 0.001,0.03111 0.003,0.04687 0.0443,0.01814 0.0896,0.03099 0.1377,0.04102 0.07,-0.164777 0.18429,-0.31773 0.31494,-0.429199 -0.002,-0.02844 -0.002,-0.05649 -0.003,-0.08496 -0.10148,-0.01407 -0.20289,-0.03306 -0.30469,-0.03369 z m 0.83057,0.0015 c -0.0652,-4.05e-4 -0.12982,0.03418 -0.19483,0.04687 -0.002,0.0012 -0.004,0.0018 -0.006,0.0029 0.1616,0.09049 0.28344,0.174754 0.375,0.395508 0.0212,-0.05078 0.0348,-0.104921 0.0352,-0.164063 5e-4,-0.05974 -0.0128,-0.122761 -0.0454,-0.172851 -0.0311,-0.04787 -0.0785,-0.09577 -0.13477,-0.105469 -0.009,-0.0016 -0.02,-0.0029 -0.0293,-0.0029 z m -0.97119,0.0059 c -0.0713,0.0077 -0.14149,0.02115 -0.20948,0.04248 -0.004,0.0333 -0.008,0.06625 -0.0117,0.09961 0.0204,0.01391 0.0405,0.02921 0.0601,0.04687 0.0261,0.02367 0.0445,0.05437 0.0586,0.08789 0.0124,-0.05862 0.0297,-0.115027 0.0498,-0.166992 0.0147,-0.03799 0.0329,-0.07428 0.0527,-0.109863 z m 0.65478,0.109863 c -0.0293,0.0164 -0.0576,0.03396 -0.085,0.05273 0.003,0.04594 0.006,0.09158 0.0117,0.137696 0.009,0.07674 0.0183,0.15431 0.0337,0.22998 0.013,0.06391 0.0341,0.12458 0.0513,0.1875 0.0145,0.0252 0.0293,0.05068 0.0439,0.07617 0.01,-0.0021 0.0196,-0.004 0.0293,-0.0059 0.0792,-0.04361 0.16671,-0.0738 0.23731,-0.130371 0.0331,-0.0265 0.0628,-0.05655 0.0893,-0.08789 -0.008,-0.03893 -0.0214,-0.07728 -0.0381,-0.112793 -0.092,-0.195676 -0.21519,-0.264667 -0.37354,-0.347168 z m -1.53369,0.01904 c -0.29832,0.101565 -0.45127,0.10728 -0.66651,0.351562 -0.0603,0.06843 -0.10914,0.154489 -0.12304,0.244629 -0.009,0.05864 0.0172,0.126033 0.0601,0.166993 0.0281,0.02677 0.0604,0.04339 0.0952,0.0542 0.004,-0.0054 0.008,-0.01087 0.0117,-0.01611 0.007,-0.02638 0.01,-0.03338 0.0146,-0.05127 -0.0187,-0.04098 -0.0311,-0.0816 -0.0308,-0.117188 5e-4,-0.05443 0.0212,-0.119129 0.0674,-0.147949 0.0287,-0.01791 0.0696,0.02187 0.0864,0.05127 0.0316,0.05553 0.0216,0.125606 0.003,0.191894 0.005,0.0149 0.0102,0.02959 0.0161,0.04395 0.0127,0.01796 0.0253,0.03624 0.0381,0.0542 0.0629,-0.008 0.12306,-0.02063 0.17286,-0.02637 0.005,-0.0026 0.0108,-0.0048 0.0161,-0.0073 0.0389,-0.118192 0.10904,-0.214691 0.25049,-0.121582 0.007,-0.0048 0.0151,-0.0094 0.022,-0.01465 0.0832,-0.06302 0.15742,-0.15012 0.20215,-0.246094 -0.0209,-0.04834 -0.0308,-0.102687 -0.0249,-0.153808 0.006,-0.05088 0.0204,-0.09993 0.0425,-0.14502 -0.0152,-0.03587 -0.0378,-0.07089 -0.0688,-0.104004 -0.0647,-0.0026 -0.12839,-0.0038 -0.18457,-0.0073 z m 0.44531,0.03955 c -0.0266,0.02545 -0.0494,0.05413 -0.0688,0.08496 0.0247,0.09251 0.0165,0.190249 -0.0161,0.284179 0.004,0.0054 0.009,0.0113 0.0132,0.01611 0.0279,0.02887 0.0756,0.02893 0.1128,0.04395 0.0421,-0.0069 0.0883,-7.78e-4 0.12597,-0.02051 0.0302,-0.01577 0.0522,-0.0389 0.0659,-0.06738 -2.8e-4,-2.5e-4 2.8e-4,-0.0012 0,-0.0015 -0.0838,-0.0759 -0.0922,-0.156963 -0.13183,-0.304687 -0.032,-0.01442 -0.0661,-0.02618 -0.10108,-0.03516 z m 0.89356,0.08789 c -0.0859,0.08801 -0.15906,0.19509 -0.21094,0.309082 0.11097,0.02761 0.0791,0.145316 -0.0322,0.114258 -0.004,-0.0011 -0.008,-0.0019 -0.0117,-0.0029 -0.007,0.02412 -0.0139,0.04886 -0.019,0.07324 -0.002,0.01014 -0.003,0.02049 -0.004,0.03076 0.0888,0.04555 0.19637,0.06064 0.28564,0.05859 0.0425,-9.6e-4 0.0842,-0.0083 0.12598,-0.01758 -0.0132,-0.02449 -0.0264,-0.049 -0.0395,-0.07324 -0.0182,-0.06749 -0.0403,-0.133649 -0.0542,-0.202149 -0.0158,-0.07828 -0.0262,-0.157914 -0.0352,-0.237304 -0.002,-0.01743 -0.003,-0.03522 -0.004,-0.05274 z m -0.56983,0.313477 c -0.0327,0.05616 -0.0838,0.101661 -0.14795,0.124512 -0.0608,0.02163 -0.12886,0.0039 -0.19336,0.0059 -0.0347,-0.02337 -0.0758,-0.04043 -0.11132,-0.06299 -0.001,0.0019 -0.002,0.0039 -0.003,0.0059 -0.0547,0.09661 -0.13582,0.18069 -0.22559,0.246094 0.005,0.0032 0.0109,0.006 0.0161,0.01025 0.0473,0.03867 0.0671,0.101574 0.10108,0.152344 0.0164,0.06961 0.0408,0.137117 0.0498,0.208007 0.0117,0.08634 0.0122,0.173643 0.0132,0.260743 0.002,0.159824 -0.0115,0.424858 -0.0205,0.584472 -0.004,0.06246 -0.009,0.124807 -0.0132,0.1875 0.27528,-0.235286 0.55049,-0.470389 0.83057,-0.700195 0.0676,-0.05544 0.1871,-0.152358 0.30908,-0.249024 -0.002,2.49e-4 -0.004,-2.66e-4 -0.006,0 -0.0917,-0.03437 -0.19889,-0.04288 -0.27539,-0.104003 -0.12928,-0.103305 -0.16451,-0.255884 -0.15381,-0.407227 -0.0465,-0.03634 -0.0878,-0.08048 -0.11718,-0.130371 -0.0243,-0.04132 -0.0396,-0.08468 -0.0498,-0.130371 -9.9e-4,-5.98e-4 -0.002,-8.69e-4 -0.003,-0.0015 z m 0.14795,0.06738 c 0.006,0.01203 0.0116,0.02401 0.019,0.03516 0.007,0.0104 0.0153,0.02002 0.0234,0.0293 0.004,-0.01647 0.008,-0.03337 0.0132,-0.04981 -0.0188,-0.004 -0.0373,-0.0097 -0.0557,-0.01465 z m 1.04004,0.08496 c -0.0148,0.01321 -0.0298,0.02609 -0.0454,0.03809 -0.0815,0.06247 -0.18156,0.09588 -0.27246,0.143554 -0.004,6.98e-4 -0.008,0.0022 -0.0117,0.0029 -0.01,0.0403 -0.0554,0.054 -0.0937,0.01611 -0.17005,0.03269 -0.30158,0.05965 -0.48193,-0.02344 0.002,0.107228 0.0369,0.209215 0.13769,0.27539 0.0618,0.04057 0.14393,0.03809 0.21533,0.05713 0.0428,-0.0078 0.0879,-0.01006 0.13184,-0.01465 0.0574,-0.04312 0.10952,-0.08204 0.15088,-0.108399 0.0526,-0.03352 0.10829,-0.06053 0.16406,-0.08789 0.0604,-0.08755 0.0988,-0.191791 0.10547,-0.291504 1.6e-4,-0.0025 -1.3e-4,-0.0049 0,-0.0073 z m 2.38477,0.237304 c 0.01,0.01623 0.0199,0.03204 0.0293,0.04834 0.001,9.42e-4 0.002,0.002 0.003,0.0029 -0.002,-0.0049 -0.005,-0.0097 -0.007,-0.01465 -0.006,-0.01158 -0.0105,-0.02352 -0.0161,-0.03516 -0.003,-8.49e-4 -0.006,-4.07e-4 -0.009,-0.0015 z m -4.65381,0.09375 c -0.0141,0.0017 -0.0282,0.0023 -0.0425,0.0044 0.004,0.0054 0.008,0.01071 0.0117,0.01611 0.009,0.0075 0.01,0.0094 0.0176,0.01611 0.004,-0.01218 0.008,-0.02432 0.0132,-0.03662 z m 0.13476,1.095703 c -0.01,0.100538 -0.0181,0.200922 -0.0249,0.301758 -0.005,0.06907 -0.008,0.146255 -0.0117,0.225586 0.0177,-0.01552 0.0351,-0.03133 0.0527,-0.04687 0.0555,-0.04758 0.11152,-0.09452 0.16699,-0.14209 -0.005,-0.04443 -0.0103,-0.08882 -0.0103,-0.1333 8e-5,-0.06452 0.006,-0.129024 0.0117,-0.19336 -0.006,0.0057 -0.0121,0.0114 -0.0205,0.01318 -0.0542,0.0114 -0.10927,-0.01016 -0.16407,-0.0249 z m 4.52198,0.14502 c 1.2e-4,0.0019 -1.1e-4,0.0039 0,0.0059 0.003,0.0013 0.006,0.0031 0.009,0.0044 -0.003,-0.0033 -0.006,-0.007 -0.009,-0.01025 z m -6.45997,2.71875 c -0.008,0.0048 -0.0159,0.0092 -0.0249,0.01172 -0.004,0.0038 -0.0123,0.01113 -0.0176,0.01611 l 0.041,-0.01611 c 6.6e-4,-0.004 0.002,-0.0097 0.001,-0.01172 z" />
  <path
     style="fill:#000000;fill-opacity:1;stroke-width:0.75"
     d="m 176.34754,62.030209 0.064,-0.01919"
     id="path29" />
</svg>
